<svg xmlns="http://www.w3.org/2000/svg" xmlns:xlink="http://www.w3.org/1999/xlink"><symbol id="add" viewBox="0 0 1024 1024"><path d="M976 470.4H553.6V48a41.6 41.6 0 0 0-83.2 0v422.4H48a41.6 41.6 0 0 0 0 83.2h422.4V976a41.6 41.6 0 0 0 83.2 0V553.6H976a41.6 41.6 0 0 0 0-83.2"/></symbol><symbol id="agenda" viewBox="0 0 1024 1024"><path d="M758.72 128H697.6v-6.4a41.6 41.6 0 0 0-83.2 0v6.4H425.6v-6.4a41.6 41.6 0 0 0-83.2 0v6.4h-77.12A114.88 114.88 0 0 0 150.4 241.28V832a114.88 114.88 0 0 0 114.88 114.88h493.44A114.88 114.88 0 0 0 873.6 832V241.28A114.88 114.88 0 0 0 758.72 128m32 704a32 32 0 0 1-32 32H265.28a32 32 0 0 1-32-32V241.28a32 32 0 0 1 32-32h77.12v6.4a41.6 41.6 0 0 0 83.2 0v-6.4h188.8v6.4a41.6 41.6 0 1 0 83.2 0v-6.4h61.12a32 32 0 0 1 32 32zM352 417.6h160a41.6 41.6 0 0 0 0-83.2H352a41.6 41.6 0 0 0 0 83.2m320 76.8H352a41.6 41.6 0 0 0 0 83.2h320a41.6 41.6 0 0 0 0-83.2m0 160H352a41.6 41.6 0 0 0 0 83.2h320a41.6 41.6 0 0 0 0-83.2"/></symbol><symbol id="alarm" viewBox="0 0 1024 1024"><path d="M540.8 568V368a41.6 41.6 0 1 0-83.2 0v221.12a42.56 42.56 0 0 0 16.96 33.6l116.16 84.48a40.96 40.96 0 0 0 24.32 8A41.6 41.6 0 0 0 640 640zm-25.6-433.6a408.96 408.96 0 0 0-302.4 685.12l-79.04 79.04a41.6 41.6 0 0 0 0 58.88 41.92 41.92 0 0 0 29.44 12.16 42.56 42.56 0 0 0 28.8-12.16l80-80a15 15 0 0 1 1.92-2.88 405.76 405.76 0 0 0 480 0s0 1.92 1.92 2.88l80 80a41.92 41.92 0 0 0 29.44 12.16 42.56 42.56 0 0 0 29.44-12.16 41.6 41.6 0 0 0 0-58.88l-79.36-79.04A408.96 408.96 0 0 0 515.2 134.4M188.8 544a326.4 326.4 0 1 1 326.4 326.4A326.72 326.72 0 0 1 188.8 544m-70.72-220.8a455.7 455.7 0 0 1 180.48-178.88 41.6 41.6 0 1 0-39.68-72.96 540.5 540.5 0 0 0-213.76 211.2 41.6 41.6 0 1 0 72.96 40.64m860.16-52.48a536.96 536.96 0 0 0-232-212.16 41.6 41.6 0 1 0-35.84 74.88 458.56 458.56 0 0 1 196.16 179.52 40.96 40.96 0 0 0 35.84 20.48 41.6 41.6 0 0 0 35.84-64z"/></symbol><symbol id="apps" viewBox="0 0 1024 1024"><path d="M335.36 86.4h-128A138.56 138.56 0 0 0 70.4 224v128a138.56 138.56 0 0 0 138.24 137.6h128A138.56 138.56 0 0 0 473.6 352V224A138.56 138.56 0 0 0 335.36 86.4M390.4 352a55.04 55.04 0 0 1-55.04 55.04h-128A55.04 55.04 0 0 1 153.6 352V224a55.04 55.04 0 0 1 55.04-54.4h128A55.04 55.04 0 0 1 390.4 224zM815.36 86.4h-128A138.56 138.56 0 0 0 550.4 224v128a138.56 138.56 0 0 0 138.24 138.24h128A138.56 138.56 0 0 0 953.6 352V224A138.56 138.56 0 0 0 815.36 86.4M870.4 352a55.04 55.04 0 0 1-55.04 55.04h-128A55.04 55.04 0 0 1 633.6 352V224a55.04 55.04 0 0 1 55.04-54.4h128A55.04 55.04 0 0 1 870.4 224zM335.36 534.4h-128A138.56 138.56 0 0 0 70.4 672v128a138.56 138.56 0 0 0 138.24 137.6h128A138.56 138.56 0 0 0 473.6 800V672a138.56 138.56 0 0 0-138.24-137.6M390.4 800a55.04 55.04 0 0 1-55.04 55.04h-128A55.04 55.04 0 0 1 153.6 800V672a55.04 55.04 0 0 1 55.04-54.4h128A55.04 55.04 0 0 1 390.4 672zm424.96-265.6h-128A138.56 138.56 0 0 0 550.4 672v128a138.56 138.56 0 0 0 138.24 138.24h128A138.56 138.56 0 0 0 953.6 800V672a138.56 138.56 0 0 0-138.24-137.6M870.4 800a55.04 55.04 0 0 1-55.04 55.04h-128A55.04 55.04 0 0 1 633.6 800V672a55.04 55.04 0 0 1 55.04-55.04h128A55.04 55.04 0 0 1 870.4 672z"/></symbol><symbol id="arrow-down" viewBox="0 0 1024 1024"><path d="M512 750.72a41.92 41.92 0 0 1-29.76-12.48L96 344a41.6 41.6 0 1 1 59.84-58.24L512 649.6l356.16-363.84A41.6 41.6 0 1 1 928 344L541.76 738.24A41.92 41.92 0 0 1 512 750.72"/></symbol><symbol id="arrow-exchange" viewBox="0 0 1024 1024"><path d="M111.04 601.6a41.6 41.6 0 0 0 41.6-41.6V346.24a33.92 33.92 0 0 1 33.92-33.92h726.4a41.92 41.92 0 0 0 39.04-27.2 41.28 41.28 0 0 0-12.16-45.76l-147.2-128a41.6 41.6 0 0 0-54.4 64L800 229.12H186.56A117.12 117.12 0 0 0 69.44 346.24V560a41.6 41.6 0 0 0 41.6 41.6m801.92-179.2a41.6 41.6 0 0 0-41.6 41.6v213.76a33.92 33.92 0 0 1-33.92 33.92h-726.4A41.92 41.92 0 0 0 72 738.88a41.28 41.28 0 0 0 12.16 45.76l147.2 128a41.92 41.92 0 0 0 27.2 9.92 40.96 40.96 0 0 0 32-14.4 41.92 41.92 0 0 0-4.16-58.88l-62.4-54.4h613.44a117.12 117.12 0 0 0 117.12-117.12V464a41.6 41.6 0 0 0-41.6-41.6"/></symbol><symbol id="arrow-left" viewBox="0 0 1024 1024"><path d="M709.12 939.52A40.96 40.96 0 0 1 680 927.68L285.76 541.76a41.6 41.6 0 0 1 0-59.52L680 96a41.6 41.6 0 0 1 58.24 59.52L374.4 512l363.84 356.16a41.6 41.6 0 0 1-29.12 71.36"/></symbol><symbol id="arrow-right" viewBox="0 0 1024 1024"><path d="M314.88 939.52a41.6 41.6 0 0 1-29.12-71.36L649.6 512 285.76 155.84A41.6 41.6 0 0 1 344 96l394.24 386.24a41.6 41.6 0 0 1 0 59.52L344 928a40.96 40.96 0 0 1-29.12 11.52"/></symbol><symbol id="bell-ring" viewBox="0 0 1024 1024"><path d="M862.08 590.72A132.48 132.48 0 0 1 835.52 512v-64c0-182.4-137.92-330.56-307.52-330.56S220.48 266.56 220.48 448v64a132.48 132.48 0 0 1-26.56 79.68l-18.24 23.68a124.8 124.8 0 0 0-25.28 75.52A116.8 116.8 0 0 0 264 809.6h528a116.8 116.8 0 0 0 113.6-119.68 123.2 123.2 0 0 0-25.28-75.2zM792 726.4H264a33.92 33.92 0 0 1-32-36.48 40.64 40.64 0 0 1 8-24.64L259.84 640a214.4 214.4 0 0 0 43.84-128v-64c0-136.32 100.48-247.36 224-247.36s224 111.04 224 247.36v64a214.4 214.4 0 0 0 44.48 128l18.24 24a40.64 40.64 0 0 1 8 24.64A33.92 33.92 0 0 1 792 726.4m-97.92 102.72a41.6 41.6 0 0 0-57.28 12.48 138.24 138.24 0 0 1-108.48 60.8 91.84 91.84 0 0 1-86.4-53.76 41.6 41.6 0 0 0-77.44 30.4A175.68 175.68 0 0 0 528.32 985.6a224 224 0 0 0 178.88-99.52 40.96 40.96 0 0 0-13.12-56.96M182.4 288a352 352 0 0 1 71.04-98.56A359 359 0 0 1 352 118.4a41.6 41.6 0 1 0-32-76.8 422.7 422.7 0 0 0-125.44 88.96A422.7 422.7 0 0 0 105.6 256a41.6 41.6 0 0 0 22.4 54.4 39.7 39.7 0 0 0 16 3.2 41.6 41.6 0 0 0 38.4-25.6m736-32a422.7 422.7 0 0 0-88.96-125.76A422.7 422.7 0 0 0 704 41.6a41.6 41.6 0 0 0-32 76.8 352 352 0 0 1 98.56 71.04A352 352 0 0 1 841.6 288a41.6 41.6 0 0 0 38.4 25.6 38.1 38.1 0 0 0 16-3.2 40.96 40.96 0 0 0 22.4-54.4"/></symbol><symbol id="bell-unread" viewBox="0 0 1024 1024"><path d="m864 608-18.24-24a132.48 132.48 0 0 1-26.56-79.68v-63.36a388 388 0 0 0-2.88-47.36 42.24 42.24 0 0 0-47.04-35.84 41.6 41.6 0 0 0-35.52 47.04 271 271 0 0 1 2.24 36.16v62.08a214.4 214.4 0 0 0 43.84 130.24l18.24 24a40.64 40.64 0 0 1 8 24.64 33.92 33.92 0 0 1-30.4 36.48H248a33.92 33.92 0 0 1-32-36.48 40.64 40.64 0 0 1 8-24.64l18.24-24A214.4 214.4 0 0 0 288 503.04v-62.08c0-136.32 100.48-247.36 224-247.36a41.6 41.6 0 1 0 0-83.2c-169.6 0-307.52 148.16-307.52 330.56v62.08a132.48 132.48 0 0 1-26.56 79.68L160 608a124.8 124.8 0 0 0-25.28 75.52 116.8 116.8 0 0 0 113.6 119.68h528a116.8 116.8 0 0 0 113.6-119.68A123.2 123.2 0 0 0 864 608M678.08 821.12a41.6 41.6 0 0 0-57.28 12.48A138.24 138.24 0 0 1 512 896a91.84 91.84 0 0 1-86.4-53.76 41.6 41.6 0 0 0-77.44 30.4A175.68 175.68 0 0 0 512 977.6a224 224 0 0 0 178.88-99.52 40.96 40.96 0 0 0-12.8-56.96M624 184a96 96 0 1 0 192 0 96 96 0 1 0-192 0"/></symbol><symbol id="book" viewBox="0 0 1024 1024"><path d="M837.12 134.4H800a498.24 498.24 0 0 0-252.16 68.48L512 224l-35.52-20.8A498.24 498.24 0 0 0 224 134.4h-37.12A107.84 107.84 0 0 0 78.4 241.28v432.96A120.32 120.32 0 0 0 199.36 793.6h16.96a442.9 442.9 0 0 1 224 61.12l49.92 29.12 5.44 2.24 4.8 1.92a44.16 44.16 0 0 0 21.12 0l4.8-1.92 5.44-2.24 49.92-29.12a442.9 442.9 0 0 1 224-61.12h16.96a120.32 120.32 0 0 0 120.96-119.36V241.28A107.84 107.84 0 0 0 837.12 134.4m-620.8 576h-16.96a37.12 37.12 0 0 1-37.76-36.16V241.28a24.32 24.32 0 0 1 25.28-23.68H224a416 416 0 0 1 209.92 56.96l36.16 21.12v480a525.1 525.1 0 0 0-253.76-65.28M864 674.24a37.12 37.12 0 0 1-37.76 36.16h-16.96a525.1 525.1 0 0 0-254.08 64v-480l36.16-21.12A416 416 0 0 1 800 217.6h37.44a24.32 24.32 0 0 1 25.28 23.68zm-442.88-281.6-35.2-11.84A438.4 438.4 0 0 0 248 358.4a41.6 41.6 0 0 0 0 83.2 349.1 349.1 0 0 1 111.68 18.24l35.2 11.52A37.8 37.8 0 0 0 408 473.6a41.6 41.6 0 0 0 13.12-80.96M346.56 497.6A445.4 445.4 0 0 0 248 486.4a41.6 41.6 0 1 0 0 83.2 373 373 0 0 1 79.68 8.96 32 32 0 0 0 9.28 0 41.6 41.6 0 0 0 9.6-82.24z"/></symbol><symbol id="bookmark" viewBox="0 0 1024 1024"><path d="M792.96 950.08a119.36 119.36 0 0 1-81.28-32L549.44 793.92a71.04 71.04 0 0 0-86.72 0l-148.8 117.44a118.08 118.08 0 0 1-128 24.96 135.04 135.04 0 0 1-80.32-128V201.6a128 128 0 0 1 128-128h557.44a128 128 0 0 1 128 128v613.12a134.4 134.4 0 0 1-79.36 125.76 112.6 112.6 0 0 1-46.72 9.6m-288-256a153.92 153.92 0 0 1 93.44 32l163.84 125.44 3.52 2.88a33.92 33.92 0 0 0 39.36 8.32 50.88 50.88 0 0 0 29.12-49.28V201.6a44.8 44.8 0 0 0-44.8-44.8H232.96a44.8 44.8 0 0 0-44.8 44.8v608a51.84 51.84 0 0 0 29.44 49.92 35.2 35.2 0 0 0 38.4-9.28l3.52-3.2 150.4-118.4a153.92 153.92 0 0 1 96.64-32.96z"/></symbol><symbol id="brightness" viewBox="0 0 1024 1024"><path d="M512 182.4A313.6 313.6 0 1 0 825.6 496 314.24 314.24 0 0 0 512 182.4m0 544A230.4 230.4 0 1 1 742.4 496 230.72 230.72 0 0 1 512 726.4m0 144.64a41.6 41.6 0 0 0-41.6 41.6V960a41.6 41.6 0 0 0 83.2 0v-47.36a41.6 41.6 0 0 0-41.6-41.6m0-714.56a41.6 41.6 0 0 0 41.6-41.6V64a41.6 41.6 0 0 0-83.2 0v50.88a41.6 41.6 0 0 0 41.6 41.6m-357.44 540.8-39.68 26.24A41.6 41.6 0 0 0 137.6 800a42.9 42.9 0 0 0 22.4-7.04L200.32 768a41.6 41.6 0 0 0-45.76-69.76zm689.28-361.92a40.3 40.3 0 0 0 22.72-7.04l42.56-27.84A41.6 41.6 0 0 0 864 231.04l-42.56 27.84a41.6 41.6 0 0 0 23.04 76.48zm-696 4.48a40.3 40.3 0 0 0 21.44 6.08A41.6 41.6 0 0 0 192 268.8l-41.6-24.64a41.6 41.6 0 0 0-43.2 71.36zM916.8 708.48l-43.52-26.24a41.6 41.6 0 1 0-43.2 71.04l43.52 26.56a43.2 43.2 0 0 0 21.44 5.76 41.6 41.6 0 0 0 21.76-77.12"/></symbol><symbol id="cake" viewBox="0 0 24 24" fill="none" stroke="currentColor"><path stroke-linecap="round" stroke-linejoin="round" d="M12 8.25v-1.5m0 1.5q-2.033 0-4.024.166C6.845 8.51 6 9.473 6 10.608v2.513m6-4.87q2.033 0 4.024.165C17.155 8.51 18 9.473 18 10.608v2.513m-3-4.87v-1.5m-6 1.5v-1.5m12 9.75-1.5.75a3.35 3.35 0 0 1-3 0 3.35 3.35 0 0 0-3 0 3.35 3.35 0 0 1-3 0 3.35 3.35 0 0 0-3 0 3.35 3.35 0 0 1-3 0L3 16.5m15-3.38a48.5 48.5 0 0 0-6-.37q-3.05.001-6 .37m12 0q.585.073 1.163.16c1.07.16 1.837 1.094 1.837 2.175v5.17c0 .62-.504 1.124-1.125 1.124H4.125A1.125 1.125 0 0 1 3 20.625v-5.17c0-1.08.768-2.014 1.837-2.174A48 48 0 0 1 6 13.12m6.265-10.01a.375.375 0 1 1-.53 0L12 2.845zm-3 0a.375.375 0 1 1-.53 0L9 2.845zm6 0a.375.375 0 1 1-.53 0L15 2.845z"/></symbol><symbol id="calendar" viewBox="0 0 1024 1024"><path d="M761.28 86.4h-49.6a40.64 40.64 0 0 0-79.36 0H391.68a40.64 40.64 0 0 0-79.36 0h-49.6A176.32 176.32 0 0 0 86.4 262.72v530.56A176.32 176.32 0 0 0 262.72 969.6h498.56A176.32 176.32 0 0 0 937.6 793.28V262.72A176.32 176.32 0 0 0 761.28 86.4m-498.56 83.2h47.68V224a41.6 41.6 0 0 0 83.2 0v-54.4h236.8V224a41.6 41.6 0 1 0 83.2 0v-54.4h47.68a93.12 93.12 0 0 1 93.12 93.12v79.68H169.6v-79.68a93.12 93.12 0 0 1 93.12-93.12m498.56 716.8H262.72a93.12 93.12 0 0 1-93.12-93.12V425.6h684.8v367.68a93.12 93.12 0 0 1-93.12 93.12"/></symbol><symbol id="camera" viewBox="0 0 1024 1024"><path d="M800 198.4h-43.2l-62.08-82.56a113.28 113.28 0 0 0-90.56-45.44H419.84a113.28 113.28 0 0 0-90.56 45.44L267.2 198.4H224A170.24 170.24 0 0 0 54.4 368.32v416A170.24 170.24 0 0 0 224 953.6h576a170.24 170.24 0 0 0 170.24-170.24v-416A170.24 170.24 0 0 0 800 198.4m86.4 584.96A87.04 87.04 0 0 1 800 870.4H224a87.04 87.04 0 0 1-86.4-87.04v-416A87.04 87.04 0 0 1 224 281.6h64a41.6 41.6 0 0 0 32-16.64l74.56-99.2a29.76 29.76 0 0 1 24-12.16h184.32a29.76 29.76 0 0 1 24 12.16l77.12 99.2a41.6 41.6 0 0 0 32 16.64h64a87.04 87.04 0 0 1 87.04 86.72zM512 390.4A185.6 185.6 0 1 0 697.6 576 185.6 185.6 0 0 0 512 390.4m0 288A102.4 102.4 0 1 1 614.4 576 102.72 102.72 0 0 1 512 678.4M464 240a48 48 0 1 0 96 0 48 48 0 1 0-96 0"/></symbol><symbol id="category" viewBox="0 0 1024 1024"><path d="M208 22.4A137.6 137.6 0 1 0 345.6 160 137.92 137.92 0 0 0 208 22.4m0 192a54.4 54.4 0 1 1 54.4-54.4 54.4 54.4 0 0 1-54.4 54.4m256-12.8h448a41.6 41.6 0 1 0 0-83.2H464a41.6 41.6 0 0 0 0 83.2M208 374.4A137.6 137.6 0 1 0 345.6 512 137.92 137.92 0 0 0 208 374.4m0 192a54.4 54.4 0 1 1 54.4-54.4 54.4 54.4 0 0 1-54.4 54.4m704-96H464a41.6 41.6 0 0 0 0 83.2h448a41.6 41.6 0 0 0 0-83.2m-704 256A137.6 137.6 0 1 0 345.6 864 137.92 137.92 0 0 0 208 726.4m0 192a54.4 54.4 0 1 1 54.4-54.4 54.4 54.4 0 0 1-54.4 54.4m704-96H464a41.6 41.6 0 0 0 0 83.2h448a41.6 41.6 0 0 0 0-83.2"/></symbol><symbol id="clock" viewBox="0 0 1033 1024"><path d="M544 22.4A489.6 489.6 0 1 0 1033.6 512 489.92 489.92 0 0 0 544 22.4m0 896A406.4 406.4 0 1 1 950.4 512 407.04 407.04 0 0 1 544 918.4m182.08-432H553.6V320a41.6 41.6 0 0 0-83.2 0v208a41.6 41.6 0 0 0 41.6 41.6h214.08a41.6 41.6 0 0 0 0-83.2"/></symbol><symbol id="cloud" viewBox="0 0 1025 1024"><path d="M760 881.6H296A297.6 297.6 0 0 1 281.28 288a297.28 297.28 0 0 1 540.48 71.04A265.6 265.6 0 0 1 760 882.88zm-461.44-512A214.4 214.4 0 1 0 296 800h464a182.4 182.4 0 0 0 22.4-363.2 42.24 42.24 0 0 1-35.84-33.92 214.08 214.08 0 0 0-403.2-54.72 40.96 40.96 0 0 1-39.04 23.36h-5.76z"/></symbol><symbol id="copy-check" viewBox="0 0 1024 1024"><path d="M792.64 96h-320a136.96 136.96 0 0 0-136.96 136.96V336H231.36A136.96 136.96 0 0 0 96 471.36v320a136.96 136.96 0 0 0 136.96 136.96h320a136.96 136.96 0 0 0 136.96-136.96V689.6h103.04a136.96 136.96 0 0 0 136.96-136.96v-320A136.96 136.96 0 0 0 792.64 96M608 792.64a53.76 53.76 0 0 1-53.76 53.76h-320a53.76 53.76 0 0 1-53.76-53.76v-320a53.76 53.76 0 0 1 53.76-53.76h320A53.76 53.76 0 0 1 608 471.36zm240-240A53.76 53.76 0 0 1 792.64 608H689.6V471.36A136.96 136.96 0 0 0 552.64 334.4H417.6V231.36a53.76 53.76 0 0 1 53.76-53.76h320a53.76 53.76 0 0 1 53.76 53.76zm-373.44 1.92-99.2 99.2L320 601.92a41.6 41.6 0 1 0-57.28 60.16l60.16 56.96a74.88 74.88 0 0 0 52.16 21.12 76.8 76.8 0 0 0 53.76-22.4l104.32-104.32a41.6 41.6 0 0 0-58.88-58.88z"/></symbol><symbol id="copy" viewBox="0 0 1024 1024"><path d="M792.64 96h-320a136.96 136.96 0 0 0-136.96 136.96V336H231.36A136.96 136.96 0 0 0 96 471.36v320a136.96 136.96 0 0 0 136.96 136.96h320a136.96 136.96 0 0 0 136.96-136.96V689.6h103.04a136.96 136.96 0 0 0 136.96-136.96v-320A136.96 136.96 0 0 0 792.64 96M608 792.64a53.76 53.76 0 0 1-53.76 53.76h-320a53.76 53.76 0 0 1-53.76-53.76v-320a53.76 53.76 0 0 1 53.76-53.76h320A53.76 53.76 0 0 1 608 471.36zm240-240A53.76 53.76 0 0 1 792.64 608H689.6V471.36A136.96 136.96 0 0 0 552.64 334.4H417.6V231.36a53.76 53.76 0 0 1 53.76-53.76h320a53.76 53.76 0 0 1 53.76 53.76z"/></symbol><symbol id="cup" viewBox="0 0 49 48" fill="none"><path stroke="currentColor" stroke-width="4" d="M8.778 17.012c0-.559.453-1.012 1.012-1.012h23.976c.559 0 1.012.453 1.012 1.012V31c0 7.18-5.82 13-13 13s-13-5.82-13-13z"/><path stroke="currentColor" stroke-linecap="round" stroke-linejoin="round" stroke-width="4" d="M8.778 23h26v8h-26zM21.778 4v6M13.778 6v2M29.778 6v2"/><path stroke="currentColor" stroke-linecap="round" stroke-width="4" d="M34.778 34a7 7 0 1 0 0-14"/></symbol><symbol id="darkness" viewBox="0 0 1024 1024"><path d="M521.92 943.68A441.6 441.6 0 0 1 384 82.24a41.6 41.6 0 0 1 52.48 52.48 358.08 358.08 0 0 0 341.44 469.76 360.3 360.3 0 0 0 111.36-17.92A41.6 41.6 0 0 1 941.76 640a440.32 440.32 0 0 1-419.84 303.68M339.52 193.6A358.4 358.4 0 1 0 832 684.48a409 409 0 0 1-52.48 3.2 441.92 441.92 0 0 1-441.6-441.6 409 409 0 0 1 1.6-52.48"/></symbol><symbol id="eye" viewBox="0 0 1024 1024"><path d="M512 977.6C233.28 977.6 6.4 800 6.4 584S233.28 192 512 192s505.6 176.64 505.6 393.6-226.88 392-505.6 392m0-704C279.04 273.6 89.6 412.8 89.6 584S279.04 896 512 896s422.4-139.2 422.4-310.4-189.44-312-422.4-312m-304 48a40.96 40.96 0 0 1-34.56-18.56l-64-96A41.6 41.6 0 0 1 178.56 160l64 96a41.28 41.28 0 0 1-11.52 57.6 40.64 40.64 0 0 1-23.04 8m320-64a41.6 41.6 0 0 1-41.6-41.6V88a41.6 41.6 0 0 1 83.2 0v128a41.6 41.6 0 0 1-41.6 41.6m288 64a41.92 41.92 0 0 1-29.44-12.16 41.6 41.6 0 0 1 0-58.88l96-96a41.6 41.6 0 0 1 58.88 58.88l-96 96A41.92 41.92 0 0 1 816 321.6m-304 448A185.6 185.6 0 1 1 697.6 584 185.6 185.6 0 0 1 512 769.6m0-288A102.4 102.4 0 1 0 614.4 584 102.72 102.72 0 0 0 512 481.6"/></symbol><symbol id="face-angry" viewBox="0 0 1024 1024"><path d="M512 78.4A433.6 433.6 0 1 0 945.6 512 434.24 434.24 0 0 0 512 78.4m0 785.6a352 352 0 1 1 352-352 352 352 0 0 1-352 352m137.6-229.76a356.8 356.8 0 0 0-275.2 0 41.6 41.6 0 0 0 32 76.48 272.96 272.96 0 0 1 210.56 0 40 40 0 0 0 16 3.52 41.6 41.6 0 0 0 16.32-80zM280 416a56 56 0 1 0 112 0 56 56 0 1 0-112 0m352 0a56 56 0 1 0 112 0 56 56 0 1 0-112 0"/></symbol><symbol id="face-mild" viewBox="0 0 1024 1024"><path d="M512 78.4A433.6 433.6 0 1 0 945.6 512 434.24 434.24 0 0 0 512 78.4m0 785.6a352 352 0 1 1 352-352 352 352 0 0 1-352 352M280 416a56 56 0 1 0 112 0 56 56 0 1 0-112 0m352 0a56 56 0 1 0 112 0 56 56 0 1 0-112 0m-8 224H400a41.6 41.6 0 0 0 0 83.2h224a41.6 41.6 0 0 0 0-83.2"/></symbol><symbol id="face-smile" viewBox="0 0 1024 1024"><path d="M512 78.4A433.6 433.6 0 1 0 945.6 512 434.24 434.24 0 0 0 512 78.4m0 785.6a352 352 0 1 1 352-352 352 352 0 0 1-352 352m105.28-254.4a272.96 272.96 0 0 1-210.56 0 41.6 41.6 0 0 0-32 76.8 353.92 353.92 0 0 0 275.2 0 41.6 41.6 0 0 0-32-76.8zM280 416a56 56 0 1 0 112 0 56 56 0 1 0-112 0m352 0a56 56 0 1 0 112 0 56 56 0 1 0-112 0"/></symbol><symbol id="find" viewBox="0 0 1024 1024"><path d="M512 22.4A489.6 489.6 0 1 0 1001.6 512 489.92 489.92 0 0 0 512 22.4m0 896A406.4 406.4 0 1 1 918.4 512 407.04 407.04 0 0 1 512 918.4M644.48 328l-224 64A41.92 41.92 0 0 0 392 420.48l-64 221.44a41.92 41.92 0 0 0 40 53.44 40.6 40.6 0 0 0 10.88-1.6l224-61.76A41.92 41.92 0 0 0 632 603.52l64-224A41.6 41.6 0 0 0 644.48 328M558.4 558.08l-129.92 35.84 37.12-128 129.92-37.12z"/></symbol><symbol id="follow-add" viewBox="0 0 1024 1024"><path d="M730.24 61.12h-32a279.04 279.04 0 0 0-144 40l-49.92 30.08-49.92-30.08a279.04 279.04 0 0 0-144-40h-16A280 280 0 0 0 14.08 340.8a535.04 535.04 0 0 0 206.4 424L448 942.72a91.2 91.2 0 0 0 57.6 19.84 96 96 0 0 0 54.72-17.28l128-92.16A41.6 41.6 0 1 0 640 785.6l-128 92.16a10.56 10.56 0 0 1-12.48 0L271.68 699.52A454.08 454.08 0 0 1 96 340.8a196.8 196.8 0 0 1 197.76-196.48h16a197.44 197.44 0 0 1 101.12 28.16l71.36 42.88a41.28 41.28 0 0 0 42.88 0l71.36-42.88a198.4 198.4 0 0 1 101.12-28.16h32A196.8 196.8 0 0 1 928 340.8v3.84a445.4 445.4 0 0 1-19.52 131.52 41.6 41.6 0 0 0 79.68 24.32 535.7 535.7 0 0 0 23.04-155.84v-3.84A280 280 0 0 0 730.24 61.12m222.08 608h-86.4v-86.4a41.6 41.6 0 1 0-83.2 0v86.4h-86.4a41.6 41.6 0 1 0 0 83.2h86.4v86.4a41.6 41.6 0 1 0 83.2 0v-86.4h86.4a41.6 41.6 0 0 0 0-83.2"/></symbol><symbol id="globe" viewBox="0 0 1024 1024"><path d="M512 70.4A441.6 441.6 0 1 0 953.6 512 441.92 441.92 0 0 0 512 70.4m0 800c-26.88 0-71.04-76.16-91.52-208 32 2.24 64 3.2 91.52 3.2s58.88 0 91.52-3.2c-20.48 131.84-64.64 208-91.52 208m0-288c-36.16 0-69.44 0-100.16-3.52 0-21.44-2.24-43.52-2.24-66.88s0-45.44 2.24-66.88c32-2.24 64-3.52 100.16-3.52s69.44 0 100.16 3.52c0 21.44 2.24 43.52 2.24 66.88s0 45.44-2.24 66.88c-30.72 2.24-64 3.52-100.16 3.52m-184-12.8c-103.04-15.68-160-42.24-173.12-57.6 12.8-15.36 70.08-41.92 173.12-57.6 0 19.2-1.6 38.4-1.6 57.6s.64 38.4 1.6 57.6m184-416c26.88 0 71.04 76.16 91.52 208-32-2.24-64-3.2-91.52-3.2s-58.88 0-91.52 3.2c20.48-131.84 64.64-208 91.52-208m184 300.8c103.04 15.68 160 42.24 173.12 57.6-12.8 15.36-70.08 41.92-173.12 57.6 0-19.2 1.6-38.4 1.6-57.6s-.64-38.4-1.6-57.6m160-44.8a695 695 0 0 0-167.04-39.68 672 672 0 0 0-52.16-193.6A360 360 0 0 1 855.36 409.6zM387.2 176.32a672 672 0 0 0-51.52 193.6 695 695 0 0 0-167.04 39.68A360 360 0 0 1 387.2 176.32M168.64 614.4a695 695 0 0 0 167.04 39.68 672 672 0 0 0 51.52 192A360 360 0 0 1 168.64 614.4M636.8 847.68a672 672 0 0 0 51.52-192A695 695 0 0 0 855.36 616 360 360 0 0 1 636.8 847.68"/></symbol><symbol id="heart" viewBox="0 0 1024 1024"><path d="M505.6 960a112.32 112.32 0 0 1-69.12-23.68L220.48 768a536.32 536.32 0 0 1-206.4-424.96A280 280 0 0 1 293.76 64h16a282.24 282.24 0 0 1 144 40l49.92 30.08L553.6 104a282.24 282.24 0 0 1 144-40h32a280 280 0 0 1 279.68 279.68v3.84a540.8 540.8 0 0 1-224 437.44L570.24 939.84A110.4 110.4 0 0 1 505.6 960M293.76 146.56A196.8 196.8 0 0 0 96 343.04a453.44 453.44 0 0 0 175.68 358.72l216 169.28a28.8 28.8 0 0 0 34.56 0L736 716.8a456.64 456.64 0 0 0 192-369.92v-3.84a196.8 196.8 0 0 0-196.48-196.48h-32a198.4 198.4 0 0 0-101.12 28.16l-73.28 42.88a41.28 41.28 0 0 1-42.88 0l-71.36-42.88a198.4 198.4 0 0 0-101.12-28.16z"/></symbol><symbol id="home" viewBox="0 0 1024 1024"><path d="M939.84 299.2 535.04 29.44a41.6 41.6 0 0 0-46.08 0L84.16 299.2A102.4 102.4 0 0 0 38.4 384v440.32a177.6 177.6 0 0 0 177.28 177.28h592.64A177.6 177.6 0 0 0 985.6 824.32V384a102.4 102.4 0 0 0-45.76-84.8M902.4 824.32a94.08 94.08 0 0 1-94.08 94.08H215.68a94.08 94.08 0 0 1-94.08-94.08V384a20.16 20.16 0 0 1 8.64-16.32L512 113.92l381.76 256a20.16 20.16 0 0 1 8.64 16.32zM608 662.4H416a41.6 41.6 0 0 0 0 83.2h192a41.6 41.6 0 0 0 0-83.2"/></symbol><symbol id="home_alt_outline" viewBox="0 0 1024 1024"><path d="M810.667 938.667H213.333A42.667 42.667 0 0 1 170.667 896V554.667H85.333l396.459-396.502a42.667 42.667 0 0 1 60.373 0l396.502 396.502h-85.334V896a42.667 42.667 0 0 1-42.666 42.667M426.667 640h170.666v213.333H768V504.661l-256-256-256 256v348.672h170.667z"/></symbol><symbol id="id_card" viewBox="0 0 1024 1024"><path d="M853.333 853.333H170.667a82.9 82.9 0 0 1-85.334-80.042V250.667a82.86 82.86 0 0 1 85.334-80h682.666a82.86 82.86 0 0 1 85.334 80v522.666a82.9 82.9 0 0 1-85.334 80M170.667 256v511.53l682.666.47V256.47zm402.346 426.667H256a136.96 136.96 0 0 1 46.635-91.307A163.37 163.37 0 0 1 414.507 544c41.984.853 82.048 17.792 111.872 47.36a137.04 137.04 0 0 1 46.634 91.307M768 640H640v-85.333h128zM414.507 512a82.517 82.517 0 0 1-85.334-85.333 82.56 82.56 0 0 1 85.334-85.334 82.56 82.56 0 0 1 85.333 85.334A82.517 82.517 0 0 1 414.507 512M768 469.333H597.333V384H768z"/></symbol><symbol id="internation" viewBox="0 0 1024 1024"><path d="M614.4 904.96a43.5 43.5 0 0 0-10.88-15.68 41.28 41.28 0 0 0-58.56 4.16A64 64 0 0 1 504 918.4c-52.8 0-128-147.52-133.76-380.8H552a41.6 41.6 0 0 0 0-83.2H371.2C384 239.68 453.44 105.6 504 105.6s108.16 110.4 128 288a41.6 41.6 0 1 0 82.88-9.6 707.5 707.5 0 0 0-71.04-256 404.16 404.16 0 0 1 256 288 41.92 41.92 0 0 0 50.24 32 41.6 41.6 0 0 0 32-50.24A489.6 489.6 0 1 0 504 1001.6a480 480 0 0 0 122.88-15.68 41.6 41.6 0 0 0 29.76-50.56 40.64 40.64 0 0 0-42.24-30.4M364.48 130.88A810.6 810.6 0 0 0 288 454.4H102.08a406.72 406.72 0 0 1 262.4-323.52M98.88 537.6H288a836.8 836.8 0 0 0 77.44 355.52A406.4 406.4 0 0 1 98.88 537.6M792 454.4A217.92 217.92 0 0 0 576 672c0 109.12 156.8 270.4 188.16 301.44a41.6 41.6 0 0 0 58.88 0c32-32 188.16-192 188.16-301.44A217.92 217.92 0 0 0 792 454.4m0 429.44C728 815.04 657.6 719.36 657.6 672a134.4 134.4 0 0 1 270.4 0c0 47.36-72.64 143.04-136 211.84M728 704a64 64 0 1 0 128 0 64 64 0 1 0-128 0"/></symbol><symbol id="invoice" viewBox="0 0 1024 1024"><path d="M790.72 87.04H233.28a115.52 115.52 0 0 0-115.52 115.52v569.28a150.72 150.72 0 0 0 53.12 114.56l17.6 14.72a102.08 102.08 0 0 0 131.52 0l27.52-22.72a18.88 18.88 0 0 1 20.8-2.24l96 48.96A106.9 106.9 0 0 0 510.4 936a104.96 104.96 0 0 0 46.08-10.88l99.84-50.24a19.2 19.2 0 0 1 19.84 1.6l40.64 28.8A101.76 101.76 0 0 0 849.92 896l12.16-11.84a149.44 149.44 0 0 0 44.16-106.56v-576A115.52 115.52 0 0 0 790.72 87.04m32 689.92a67.2 67.2 0 0 1-19.84 47.68l-12.16 12.16a19.84 19.84 0 0 1-24.96 1.92l-40.32-29.12a103.36 103.36 0 0 0-105.6-9.6l-99.52 50.24a18.88 18.88 0 0 1-17.6 0l-96-48.64a103.04 103.04 0 0 0-111.36 12.48l-27.2 22.72a19.84 19.84 0 0 1-24.96 0L224 823.04a66.88 66.88 0 0 1-24-51.2V202.56a32 32 0 0 1 32-32h558.72a32 32 0 0 1 32 32zM335.36 367.68h192a41.6 41.6 0 1 0 0-83.2h-192a41.6 41.6 0 0 0 0 83.2m352 76.8h-352a41.6 41.6 0 0 0 0 83.2h352a41.6 41.6 0 1 0 0-83.2m0 160h-352a41.6 41.6 0 1 0 0 83.2h352a41.6 41.6 0 1 0 0-83.2"/></symbol><symbol id="javascript-fill" viewBox="0 0 24 24"><path d="M6 3a3 3 0 0 0-3 3v12a3 3 0 0 0 3 3h12a3 3 0 0 0 3-3V6a3 3 0 0 0-3-3zm7.334 13.055q1.08.87 2.156.858.66 0 1.012-.242a.75.75 0 0 0 .341-.66.97.97 0 0 0-.34-.748q-.352-.307-1.332-.616-1.177-.34-1.815-.88-.626-.54-.638-1.507 0-.913.792-1.529.77-.616 1.97-.616 1.672 0 2.683.814l-.77 1.199a2.6 2.6 0 0 0-.935-.462 3.2 3.2 0 0 0-.946-.165q-.57 0-.913.209-.34.21-.34.55 0 .374.417.638.42.254 1.43.561 1.221.363 1.738.968t.517 1.54q0 .957-.737 1.65-.726.682-2.112.715-1.815 0-3.036-1.089zm-5.53.638q.352.22.847.22.517 0 .858-.297.34-.308.341-1.067v-5.302h1.485v5.588q-.033 1.298-.748 1.87a2.5 2.5 0 0 1-.891.484 3.3 3.3 0 0 1-.935.143q-.825 0-1.463-.286-.682-.307-1.144-1.089l1.034-.847q.285.385.616.583"/></symbol><symbol id="layers" viewBox="0 0 1024 1024"><path d="m106.88 317.76 400 184a41.6 41.6 0 0 0 17.6 3.84 39.7 39.7 0 0 0 16-3.2l375.36-160a40.96 40.96 0 0 0 25.28-36.8 41.6 41.6 0 0 0-22.72-38.72l-384-192a42.88 42.88 0 0 0-34.88 0L107.84 241.92a41.6 41.6 0 0 0 0 75.84zm408-160L800 301.44 524.48 418.56l-297.6-137.28zm368.64 332.8-358.4 152-384-176.32a41.6 41.6 0 0 0-34.88 75.52l400 184a41.6 41.6 0 0 0 17.6 3.84 39.7 39.7 0 0 0 16-3.2l375.36-160a41.6 41.6 0 0 0-32-76.48zm0 224-358.4 152-384-176.32a41.6 41.6 0 0 0-34.88 75.52l400 184a41.6 41.6 0 0 0 17.6 3.84 39.7 39.7 0 0 0 16-3.2l375.36-160a41.6 41.6 0 1 0-32-76.48z"/></symbol><symbol id="list" viewBox="0 0 1024 1024"><path d="M256 54.4A201.6 201.6 0 1 0 457.6 256 201.92 201.92 0 0 0 256 54.4m0 320A118.4 118.4 0 1 1 374.4 256 118.4 118.4 0 0 1 256 374.4m352-140.8h320a41.6 41.6 0 1 0 0-83.2H608a41.6 41.6 0 0 0 0 83.2m320 76.8H608a41.6 41.6 0 0 0 0 83.2h320a41.6 41.6 0 0 0 0-83.2m-672 256A201.6 201.6 0 1 0 457.6 768 201.92 201.92 0 0 0 256 566.4m0 320A118.4 118.4 0 1 1 374.4 768 118.4 118.4 0 0 1 256 886.4m672-224H608a41.6 41.6 0 0 0 0 83.2h320a41.6 41.6 0 0 0 0-83.2m0 160H608a41.6 41.6 0 0 0 0 83.2h320a41.6 41.6 0 0 0 0-83.2"/></symbol><symbol id="location" viewBox="0 0 1024 1024"><path d="M512 14.4A470.4 470.4 0 0 0 172.8 160 421.76 421.76 0 0 0 54.72 474.24C71.68 800 477.12 997.12 494.4 1005.44a38.7 38.7 0 0 0 17.92 4.16 41.9 41.9 0 0 0 15.04-2.88C544 1000 969.92 832 969.92 472A458.24 458.24 0 0 0 512 14.4m0 907.52C441.28 882.88 150.72 712 137.92 469.76a337.28 337.28 0 0 1 96-252.48A384 384 0 0 1 512 97.6 375.04 375.04 0 0 1 886.4 472c.32 266.56-297.92 416.64-372.48 449.92zM512 256a201.6 201.6 0 1 0 201.6 201.6A201.92 201.92 0 0 0 512 256m0 320a118.4 118.4 0 1 1 118.4-118.4A118.4 118.4 0 0 1 512 576"/></symbol><symbol id="marshalling" viewBox="0 0 1024 1024"><path d="M512 657.6a390.4 390.4 0 0 1-384-302.4l-55.68 38.72a41.6 41.6 0 0 1-48.64-67.84l112-80A41.6 41.6 0 0 1 201.6 280 303.04 303.04 0 0 0 512 576a303.04 303.04 0 0 0 310.4-294.4 41.6 41.6 0 0 1 65.92-33.92l112 80a41.6 41.6 0 0 1-48.64 67.84L897.6 355.2A390.4 390.4 0 0 1 512 657.6m-368 0a40.64 40.64 0 0 1-23.04-7.04 41.28 41.28 0 0 1-11.52-57.6l64-96A41.6 41.6 0 0 1 242.56 544l-64 96A40.96 40.96 0 0 1 144 657.6m384 128a41.6 41.6 0 0 1-41.6-41.6V616a41.6 41.6 0 0 1 83.2 0v128a41.6 41.6 0 0 1-41.6 41.6m384-128a41.92 41.92 0 0 1-29.44-12.16l-96-96a41.6 41.6 0 1 1 58.88-58.88l96 96a41.6 41.6 0 0 1 0 58.88A41.92 41.92 0 0 1 912 657.6"/></symbol><symbol id="message" viewBox="0 0 1024 1024"><path d="M512 22.4a489.28 489.28 0 0 0-347.52 834.24V960a40 40 0 0 0 12.16 29.44 41.6 41.6 0 0 0 29.44 12.16H512a489.6 489.6 0 0 0 0-979.2m0 896H247.36v-79.04a41.6 41.6 0 0 0-13.12-30.4A402.56 402.56 0 0 1 105.6 512 406.4 406.4 0 1 1 512 918.4m76.16-273.92a102.72 102.72 0 0 1-153.92-1.6 41.6 41.6 0 0 0-64 54.08 185.6 185.6 0 0 0 278.72 3.2 41.6 41.6 0 0 0-61.76-55.68z"/></symbol><symbol id="microphone-mute" viewBox="0 0 1024 1024"><path d="M807.04 646.4a45.1 45.1 0 0 0 15.68 2.88 41.92 41.92 0 0 0 38.72-25.6A380.5 380.5 0 0 0 889.6 480a41.6 41.6 0 0 0-83.2 0 291.2 291.2 0 0 1-22.08 112 41.92 41.92 0 0 0 22.72 54.4M940.8 849.92 800 713.28a40.64 40.64 0 0 0-12.16-34.56 41.92 41.92 0 0 0-34.56-10.24l-360-344.32A41.6 41.6 0 0 0 352 284.48L140.8 81.92a41.6 41.6 0 1 0-57.6 60.16L310.4 360v161.92a192 192 0 0 0 192 192h19.84a192 192 0 0 0 115.84-39.04l46.4 44.16A291.2 291.2 0 0 1 512 774.4 294.72 294.72 0 0 1 217.6 480a41.6 41.6 0 0 0-83.2 0 377.92 377.92 0 0 0 352 376.32v46.08H384a41.6 41.6 0 0 0 0 83.2h256a41.6 41.6 0 0 0 0-83.2h-70.4v-49.92a380.16 380.16 0 0 0 175.04-75.52L883.2 910.08a41.6 41.6 0 1 0 57.6-60.16M521.92 630.4h-19.84A108.48 108.48 0 0 1 393.6 521.92V440L576 615.04a106.24 106.24 0 0 1-54.08 15.36m-174.4-420.48a41.92 41.92 0 0 0 54.72-22.08 108.16 108.16 0 0 1 99.84-66.24h19.84A108.48 108.48 0 0 1 630.4 230.08V480a41.6 41.6 0 0 0 83.2 0V230.08a192 192 0 0 0-192-192h-19.84A192 192 0 0 0 325.12 155.2a41.6 41.6 0 0 0 22.4 54.72"/></symbol><symbol id="microphone" viewBox="0 0 1024 1024"><path d="M512 769.6A201.92 201.92 0 0 0 713.6 568V216a201.6 201.6 0 0 0-403.2 0v352A201.92 201.92 0 0 0 512 769.6M393.6 216a118.4 118.4 0 0 1 236.8 0v352a118.4 118.4 0 0 1-236.8 0zm496 320a41.6 41.6 0 0 0-83.2 0 294.4 294.4 0 0 1-588.8 0 41.6 41.6 0 0 0-83.2 0 377.92 377.92 0 0 0 352 376.32V968a41.6 41.6 0 0 0 83.2 0v-59.2a377.92 377.92 0 0 0 320-372.8"/></symbol><symbol id="more" viewBox="0 0 1024 1024"><path d="M416 512a96 96 0 1 0 192 0 96 96 0 1 0-192 0m-384 0a96 96 0 1 0 192 0 96 96 0 1 0-192 0m768 0a96 96 0 1 0 192 0 96 96 0 1 0-192 0"/></symbol><symbol id="notice" viewBox="0 0 1024 1024"><path d="M875.52 582.72v-188.8a363.52 363.52 0 0 0-727.04 0v188.8A133.76 133.76 0 0 0 160 849.6h704a133.76 133.76 0 0 0 10.88-266.88zM864 768H160a50.56 50.56 0 1 1 0-102.4 72.32 72.32 0 0 0 72.32-72.32V393.92a280.32 280.32 0 0 1 560.64 0v199.36A72.32 72.32 0 0 0 864 665.6a50.56 50.56 0 1 1 0 102.4M672 910.4H352a41.6 41.6 0 0 0 0 83.2h320a41.6 41.6 0 0 0 0-83.2"/></symbol><symbol id="pin" viewBox="0 0 1024 1024"><path d="M928 390.4 632.96 96a108.48 108.48 0 0 0-149.44 0 105.28 105.28 0 0 0-32 74.88 102.4 102.4 0 0 0 9.28 42.88L313.28 361.28A108.16 108.16 0 0 0 195.52 384a105.6 105.6 0 0 0 0 149.44l119.04 119.04L77.12 888.96a41.6 41.6 0 0 0 0 58.56 41.28 41.28 0 0 0 29.44 12.16A40 40 0 0 0 136 947.52L373.44 710.4l117.12 117.12a105.6 105.6 0 0 0 171.2-117.76l148.48-148.48A105.6 105.6 0 0 0 928 390.4M869.12 480a22.72 22.72 0 0 1-32 0l-2.56-2.88a41.6 41.6 0 0 0-58.88 0L578.24 674.56a41.6 41.6 0 0 0 0 58.88l2.56 2.88a22.08 22.08 0 0 1 0 32 22.72 22.72 0 0 1-32 0L256 473.6a22.08 22.08 0 0 1 0-32 22.4 22.4 0 0 1 15.68-6.4 21.44 21.44 0 0 1 16 6.72l.32 2.88a41.6 41.6 0 0 0 58.56 0L544 247.04a41.28 41.28 0 0 0 0-58.56v-2.88a22.08 22.08 0 0 1 0-32 23.36 23.36 0 0 1 32 0L869.12 448a22.08 22.08 0 0 1 0 32"/></symbol><symbol id="plugin" viewBox="0 0 1024 1024"><path d="M410.24 944.32h-52.48a128 128 0 0 1-128-128v-131.2A202.56 202.56 0 0 1 230.4 288v-87.68A120.64 120.64 0 0 1 352 79.68h480a120.64 120.64 0 0 1 121.6 120.64v160a41.6 41.6 0 0 1-41.6 41.6h-3.84a102.4 102.4 0 1 0 0 204.8H912a41.6 41.6 0 0 1 41.6 41.6v165.76a128 128 0 0 1-128 128h-35.84a128 128 0 0 1-128-128A44.16 44.16 0 0 0 618.24 768h-36.48a44.16 44.16 0 0 0-44.16 44.16v4.16a128 128 0 0 1-127.36 128M352 162.88a37.44 37.44 0 0 0-38.4 37.44v128a41.6 41.6 0 0 1-41.6 41.6A119.36 119.36 0 0 0 272 608a41.6 41.6 0 0 1 41.6 41.6v168.32a44.16 44.16 0 0 0 44.16 44.48h52.48a44.16 44.16 0 0 0 44.16-44.48v-4.16a128 128 0 0 1 128-128h36.48a128 128 0 0 1 128 128 44.16 44.16 0 0 0 44.16 44.16h36.48a44.16 44.16 0 0 0 44.16-44.16v-128A185.6 185.6 0 0 1 870.4 320V200.32a37.44 37.44 0 0 0-38.4-37.44z"/></symbol><symbol id="power" viewBox="0 0 1024 1024"><path d="M496 505.6a41.6 41.6 0 0 1-41.6-41.6V112a41.6 41.6 0 0 1 83.2 0v352a41.6 41.6 0 0 1-41.6 41.6m16 448a441.92 441.92 0 0 1-264-795.84A41.6 41.6 0 0 1 297.92 224a358.4 358.4 0 1 0 416-9.92 41.6 41.6 0 1 1 46.72-68.8A441.6 441.6 0 0 1 512 953.6"/></symbol><symbol id="received" viewBox="0 0 1024 1024"><path d="M838.08 110.4h-68.16A121.92 121.92 0 0 0 656 32H368a121.92 121.92 0 0 0-113.92 80h-68.16A115.52 115.52 0 0 0 70.4 225.92v652.16A115.52 115.52 0 0 0 185.92 993.6h652.16A115.52 115.52 0 0 0 953.6 878.08V225.92A115.52 115.52 0 0 0 838.08 110.4M368 113.6h288a38.4 38.4 0 0 1 0 76.8H368a38.4 38.4 0 1 1 0-76.8m502.4 764.48a32 32 0 0 1-32 32H185.92a32 32 0 0 1-32-32V225.92a32 32 0 0 1 32-32h68.16a121.92 121.92 0 0 0 113.92 80h288a121.92 121.92 0 0 0 113.92-80h68.16a32 32 0 0 1 32 32zM661.76 364.8l-216 224L331.2 487.36a41.6 41.6 0 1 0-55.36 62.08l144.64 128A40.64 40.64 0 0 0 448 688a41.6 41.6 0 0 0 30.08-12.8L721.6 420.8a41.6 41.6 0 1 0-59.84-57.6z"/></symbol><symbol id="refresh" viewBox="0 0 1024 1024"><path d="M912.96 716.16a41.28 41.28 0 0 0-57.28 12.8 406.4 406.4 0 0 1-739.84-126.08l51.2 37.12a41.6 41.6 0 1 0 49.92-64l-128-96a41.28 41.28 0 0 0-43.52-3.84A41.6 41.6 0 0 0 22.4 512a489.6 489.6 0 0 0 903.68 261.44 41.6 41.6 0 0 0-13.12-57.28M512 22.4a488.64 488.64 0 0 0-408.96 220.48A41.6 41.6 0 0 0 172.48 288a406.4 406.4 0 0 1 738.56 145.28l-89.6-53.44a41.6 41.6 0 0 0-42.88 71.04l160 96a40.3 40.3 0 0 0 21.44 6.08 42.56 42.56 0 0 0 20.48-5.44A41.28 41.28 0 0 0 1001.6 512 489.92 489.92 0 0 0 512 22.4"/></symbol><symbol id="ri-arrow-left-s-line" viewBox="0 0 24 24"><path d="m10.828 12 4.95 4.95-1.414 1.415L8 12l6.364-6.364 1.414 1.414z"/></symbol><symbol id="ri-arrow-right-s-line" viewBox="0 0 24 24"><path d="m13.171 12-4.95-4.95 1.415-1.413L16 12l-6.364 6.364-1.414-1.415z"/></symbol><symbol id="riding-line" viewBox="0 0 24 24"><path d="M5.5 21a4.5 4.5 0 1 1 0-9 4.5 4.5 0 0 1 0 9m0-2a2.5 2.5 0 1 0 0-5 2.5 2.5 0 0 0 0 5m13 2a4.5 4.5 0 1 1 0-9 4.5 4.5 0 0 1 0 9m0-2a2.5 2.5 0 1 0 0-5 2.5 2.5 0 0 0 0 5m-7.477-8.695L13 12v6h-2v-5l-2.719-2.266A2 2 0 0 1 8 7.671l2.828-2.828a2 2 0 0 1 2.829 0l1.414 1.414a6.97 6.97 0 0 0 3.917 1.975l-.01 2.015a8.96 8.96 0 0 1-5.321-2.575zM16 5a2 2 0 1 1 0-4 2 2 0 0 1 0 4"/></symbol><symbol id="search" viewBox="0 0 1027 1024"><path d="M457.6 14.4A457.6 457.6 0 1 0 915.2 472 458.24 458.24 0 0 0 457.6 14.4m0 832a374.4 374.4 0 1 1 376-374.4 375.04 375.04 0 0 1-376 374.4m557.44 92.16-96-96a41.6 41.6 0 0 0-58.88 58.88l96 96a41.6 41.6 0 0 0 58.88 0 41.6 41.6 0 0 0 0-58.88"/></symbol><symbol id="spy-line" viewBox="0 0 24 24"><path d="M17 13a4 4 0 1 1-4 4h-2a4 4 0 1 1-.535-2h3.07A4 4 0 0 1 17 13M7 15a2 2 0 1 0 0 4 2 2 0 0 0 0-4m10 0a2 2 0 1 0 0 4 2 2 0 0 0 0-4M16 3a4 4 0 0 1 4 4v3h2v2H2v-2h2V7a4 4 0 0 1 4-4zm0 2H8c-1.054 0-2 .95-2 2v3h12V7c0-1.054-.95-2-2-2"/></symbol><symbol id="tag" viewBox="0 0 1024 1024"><path d="M520 234.56a137.6 137.6 0 1 0 137.6 137.6A137.92 137.92 0 0 0 520 234.56m0 192a54.4 54.4 0 1 1 54.4-54.4 54.4 54.4 0 0 1-54.4 54.4m269.44-206.72L640 113.92a221.44 221.44 0 0 0-252.8 0L234.56 219.84a197.12 197.12 0 0 0-84.16 161.6v377.6a192 192 0 0 0 192 192h340.16a192 192 0 0 0 192-192v-377.6a197.12 197.12 0 0 0-85.12-161.6m0 539.2A107.84 107.84 0 0 1 681.6 866.56H341.44A107.84 107.84 0 0 1 233.6 759.04v-377.6A113.6 113.6 0 0 1 282.24 288l151.04-105.92a137.92 137.92 0 0 1 157.44 0L741.76 288a113.6 113.6 0 0 1 48.64 93.44z"/></symbol><symbol id="theme" viewBox="0 0 1024 1024"><path d="M210.304 813.696Q335.274 938.666 512 938.666q136.32 0 152.917-183.21 5.291-58.283 13.355-67.413 4.053-4.566 70.059-18.048Q938.667 631.168 938.667 512q0-176.725-124.971-301.696Q688.726 85.334 512 85.334q-176.725 0-301.696 124.97Q85.334 335.274 85.334 512q0 176.725 124.97 301.696M614.4 631.466c-62.55 70.571-.683 221.867-102.4 221.867A341.333 341.333 0 1 1 853.333 512c0 86.784-185.6 59.221-238.933 119.467M517.632 253.1Q486.4 284.33 486.4 328.533q0 44.16 31.232 75.435 31.232 31.232 75.435 31.232 44.16 0 75.434-31.232 31.232-31.232 31.232-75.435T668.501 253.1t-75.434-31.232-75.435 31.232M256 405.333q0-44.202 31.232-75.434t75.435-31.232 75.434 31.232 31.232 75.434-31.232 75.435T362.667 512t-75.435-31.232T256 405.333m321.963-61.696q-6.23-6.272-6.23-15.104t6.23-15.104q6.272-6.229 15.104-6.229t15.104 6.23q6.229 6.271 6.229 15.103t-6.23 15.104q-6.271 6.23-15.103 6.23t-15.104-6.23m-236.63 61.696q0 8.832 6.23 15.104 6.272 6.23 15.104 6.23t15.104-6.23Q384 414.165 384 405.333t-6.23-15.104Q371.5 384 362.668 384t-15.104 6.23q-6.23 6.271-6.23 15.103m-76.8 238.934q0-44.203 31.232-75.435T371.2 537.6t75.435 31.232 31.232 75.435-31.232 75.434-75.435 31.232-75.435-31.232-31.232-75.434m85.334 0q0 8.832 6.229 15.104 6.272 6.229 15.104 6.229t15.104-6.23q6.23-6.271 6.23-15.103t-6.23-15.104q-6.272-6.23-15.104-6.23t-15.104 6.23q-6.23 6.272-6.23 15.104"/></symbol><symbol id="trapped" viewBox="0 0 1024 1024"><path d="M213.333 341.333H128V170.667a85.333 85.333 0 0 1 85.333-85.334H384v85.334H213.333zm597.334-256H640v85.334h170.667v170.666H896V170.667a85.333 85.333 0 0 0-85.333-85.334m-149.334 320a149.333 149.333 0 1 1-298.666 0 149.333 149.333 0 0 1 298.666 0m-85.333 0a64 64 0 1 0-128 0 64 64 0 0 0 128 0M390.101 768h-87.466q11.52-66.219 56.789-117.163 62.72-70.57 152.576-70.57t152.576 70.57Q709.888 701.781 721.408 768h-87.467q-9.386-33.75-33.152-60.501-37.248-41.899-88.746-41.899-51.584 0-88.832 41.899Q399.445 734.25 390.1 768M384 853.333v85.334H213.333A85.333 85.333 0 0 1 128 853.333V682.667h85.333v170.666zm426.667 85.334H640v-85.334h170.667V682.667H896v170.666a85.333 85.333 0 0 1-85.333 85.334"/></symbol><symbol id="user" viewBox="0 0 1024 1024"><path d="M213.333 896H128v-42.667a299.01 299.01 0 0 1 298.667-298.666h170.666A299.01 299.01 0 0 1 896 853.333V896h-85.333v-42.667A213.59 213.59 0 0 0 597.333 640H426.667a213.59 213.59 0 0 0-213.334 213.333zM512 512a213.333 213.333 0 1 1 0-426.667A213.333 213.333 0 0 1 512 512m0-341.333a128 128 0 1 0 0 256 128 128 0 0 0 0-256"/></symbol><symbol id="video" viewBox="0 0 1024 1024"><path d="M970.88 312.96a79.04 79.04 0 0 0-74.88-5.12L801.6 352v-80.96A120.64 120.64 0 0 0 680.96 150.4H135.04A120.64 120.64 0 0 0 14.4 271.04v481.92A120.64 120.64 0 0 0 135.04 873.6h545.92A120.64 120.64 0 0 0 801.6 752.96V672l94.4 44.16a81.3 81.3 0 0 0 32 7.36 79.36 79.36 0 0 0 42.56-12.48A85.12 85.12 0 0 0 1009.6 640V384a85.12 85.12 0 0 0-38.72-71.04m-252.48 440a37.76 37.76 0 0 1-37.44 37.44H135.04a37.76 37.76 0 0 1-37.44-37.44V271.04a37.76 37.76 0 0 1 37.44-37.44h545.92a37.76 37.76 0 0 1 37.44 37.44zM926.08 640 801.6 582.72V442.56L928 384zM264 456a72 72 0 1 0 144 0 72 72 0 1 0-144 0"/></symbol><symbol id="voice" viewBox="0 0 1024 1024"><path d="M184 515.84a80 80 0 1 0 160 0 80 80 0 1 0-160 0m244.8-255.68a41.6 41.6 0 0 0 0 58.88A278.4 278.4 0 0 1 448 692.8a41.6 41.6 0 0 0 5.44 58.56 42.24 42.24 0 0 0 26.56 9.6 41.28 41.28 0 0 0 32-15.04 363.2 363.2 0 0 0 82.56-230.08 359.36 359.36 0 0 0-105.92-256 42.24 42.24 0 0 0-59.84.32M679.36 88.32a41.6 41.6 0 1 0-52.8 64 470.72 470.72 0 0 1 8.64 720 41.6 41.6 0 0 0 27.2 72.96 40.64 40.64 0 0 0 27.2-10.24 553.28 553.28 0 0 0-10.24-846.72"/></symbol><symbol id="volume-max" viewBox="0 0 1024 1024"><path d="M676.16 326.72A41.6 41.6 0 0 0 617.28 384a196.48 196.48 0 0 1 57.92 140.16 198.72 198.72 0 0 1-45.12 125.76 41.28 41.28 0 0 0 5.76 58.56 40.64 40.64 0 0 0 26.24 9.28 41.92 41.92 0 0 0 32-15.04 281.92 281.92 0 0 0 64-178.56 278.4 278.4 0 0 0-81.92-197.44m142.72-129.6a41.6 41.6 0 1 0-52.8 64 341.12 341.12 0 0 1 6.08 522.56 41.6 41.6 0 0 0 27.84 73.6 42.24 42.24 0 0 0 27.2-10.24 424.64 424.64 0 0 0-7.68-649.92zm-322.24-39.04a78.4 78.4 0 0 0-84.16 10.56L261.44 292.8H152A102.08 102.08 0 0 0 49.92 394.56v224A101.76 101.76 0 0 0 152 720.32h108.48L409.92 854.4a79.36 79.36 0 0 0 132.16-58.88V229.76a79.04 79.04 0 0 0-45.44-71.68m-37.76 627.2L304 646.72a40.32 40.32 0 0 0-27.52-10.88H152a18.88 18.88 0 0 1-18.88-18.56v-224A18.88 18.88 0 0 1 152 374.72h124.48a41.28 41.28 0 0 0 26.24-9.6l156.16-128z"/></symbol><symbol id="volume-mute" viewBox="0 0 1024 1024"><path d="M462.4 873.6a78.72 78.72 0 0 1-52.48-20.48L260.48 719.04H152A101.76 101.76 0 0 1 49.92 617.28v-224A102.08 102.08 0 0 1 152 292.8h109.44l151.04-124.16a79.04 79.04 0 0 1 129.6 61.12v564.48a78.08 78.08 0 0 1-47.04 72.32 79 79 0 0 1-32.64 7.04M152 376a18.88 18.88 0 0 0-18.88 18.56v224A18.88 18.88 0 0 0 152 637.12h124.48A40.32 40.32 0 0 1 304 648l154.88 138.56V238.4l-156.16 128a41.28 41.28 0 0 1-26.24 9.6z"/></symbol><symbol id="zoom-in" viewBox="0 0 1024 1024"><path d="M846.4 787.52a434.24 434.24 0 1 0-58.88 58.88l87.04 87.04a41.6 41.6 0 0 0 58.88 0 41.6 41.6 0 0 0 0-58.88zM512 864a352 352 0 1 1 352-352 352 352 0 0 1-352 352m168-384H545.6V345.6a41.6 41.6 0 0 0-83.2 0V480H328a41.6 41.6 0 0 0 0 83.2h134.4v134.4a41.6 41.6 0 0 0 83.2 0V563.2H680a41.6 41.6 0 0 0 0-83.2"/></symbol><symbol id="zoom-out" viewBox="0 0 1024 1024"><path d="M846.4 787.52a434.24 434.24 0 1 0-58.88 58.88l87.04 87.04a41.6 41.6 0 0 0 58.88 0 41.6 41.6 0 0 0 0-58.88zM512 864a352 352 0 1 1 352-352 352 352 0 0 1-352 352m168-384H328a41.6 41.6 0 0 0 0 83.2h352a41.6 41.6 0 0 0 0-83.2"/></symbol></svg>