<?xml version="1.0" standalone="no"?><!DOCTYPE svg PUBLIC "-//W3C//DTD SVG 1.1//EN" "http://www.w3.org/Graphics/SVG/1.1/DTD/svg11.dtd"><svg class="icon" width="32px" height="32.00px" viewBox="0 0 1024 1024" version="1.1" xmlns="http://www.w3.org/2000/svg"><path d="M540.8 568V368a41.6 41.6 0 1 0-83.2 0v221.12a42.56 42.56 0 0 0 16.96 33.6l116.16 84.48a40.96 40.96 0 0 0 24.32 8A41.6 41.6 0 0 0 640 640zM515.2 134.4a408.96 408.96 0 0 0-302.4 685.12l-79.04 79.04a41.6 41.6 0 0 0 0 58.88 41.92 41.92 0 0 0 29.44 12.16 42.56 42.56 0 0 0 28.8-12.16l80-80a15.04 15.04 0 0 1 1.92-2.88 405.76 405.76 0 0 0 480 0s0 1.92 1.92 2.88l80 80a41.92 41.92 0 0 0 29.44 12.16 42.56 42.56 0 0 0 29.44-12.16 41.6 41.6 0 0 0 0-58.88l-79.36-79.04A408.96 408.96 0 0 0 515.2 134.4zM188.8 544a326.4 326.4 0 1 1 326.4 326.4A326.72 326.72 0 0 1 188.8 544zM118.08 323.2a455.68 455.68 0 0 1 180.48-178.88 41.6 41.6 0 1 0-39.68-72.96 540.48 540.48 0 0 0-213.76 211.2 41.6 41.6 0 1 0 72.96 40.64zM978.24 270.72a536.96 536.96 0 0 0-232-212.16 41.6 41.6 0 1 0-35.84 74.88 458.56 458.56 0 0 1 196.16 179.52 40.96 40.96 0 0 0 35.84 20.48 41.6 41.6 0 0 0 35.84-64z" /></svg>