<?xml version="1.0" standalone="no"?><!DOCTYPE svg PUBLIC "-//W3C//DTD SVG 1.1//EN" "http://www.w3.org/Graphics/SVG/1.1/DTD/svg11.dtd"><svg class="icon" width="32px" height="32.00px" viewBox="0 0 1024 1024" version="1.1" xmlns="http://www.w3.org/2000/svg"><path d="M111.04 601.6a41.6 41.6 0 0 0 41.6-41.6v-213.76a33.92 33.92 0 0 1 33.92-33.92h726.4a41.92 41.92 0 0 0 39.04-27.2 41.28 41.28 0 0 0-12.16-45.76l-147.2-128a41.6 41.6 0 0 0-54.4 64L800 229.12H186.56a117.12 117.12 0 0 0-117.12 117.12v213.76a41.6 41.6 0 0 0 41.6 41.6zM912.96 422.4a41.6 41.6 0 0 0-41.6 41.6v213.76a33.92 33.92 0 0 1-33.92 33.92H111.04a41.92 41.92 0 0 0-39.04 27.2 41.28 41.28 0 0 0 12.16 45.76l147.2 128a41.92 41.92 0 0 0 27.2 9.92 40.96 40.96 0 0 0 32-14.4 41.92 41.92 0 0 0-4.16-58.88L224 794.88h613.44a117.12 117.12 0 0 0 117.12-117.12V464a41.6 41.6 0 0 0-41.6-41.6z" /></svg>