<?xml version="1.0" standalone="no"?><!DOCTYPE svg PUBLIC "-//W3C//DTD SVG 1.1//EN" "http://www.w3.org/Graphics/SVG/1.1/DTD/svg11.dtd"><svg class="icon" width="32px" height="32.00px" viewBox="0 0 1024 1024" version="1.1" xmlns="http://www.w3.org/2000/svg"><path d="M864 608l-18.24-24a132.48 132.48 0 0 1-26.56-79.68v-63.36a387.84 387.84 0 0 0-2.88-47.36 42.24 42.24 0 0 0-47.04-35.84 41.6 41.6 0 0 0-35.52 47.04 271.04 271.04 0 0 1 2.24 36.16v62.08a214.4 214.4 0 0 0 43.84 130.24l18.24 24a40.64 40.64 0 0 1 8 24.64 33.92 33.92 0 0 1-30.4 36.48H248a33.92 33.92 0 0 1-32-36.48 40.64 40.64 0 0 1 8-24.64l18.24-24A214.4 214.4 0 0 0 288 503.04v-62.08c0-136.32 100.48-247.36 224-247.36a41.6 41.6 0 1 0 0-83.2c-169.6 0-307.52 148.16-307.52 330.56v62.08a132.48 132.48 0 0 1-26.56 79.68L160 608a124.8 124.8 0 0 0-25.28 75.52 116.8 116.8 0 0 0 113.6 119.68h528a116.8 116.8 0 0 0 113.6-119.68A123.2 123.2 0 0 0 864 608zM678.08 821.12a41.6 41.6 0 0 0-57.28 12.48A138.24 138.24 0 0 1 512 896a91.84 91.84 0 0 1-86.4-53.76 41.6 41.6 0 0 0-77.44 30.4A175.68 175.68 0 0 0 512 977.6a224 224 0 0 0 178.88-99.52 40.96 40.96 0 0 0-12.8-56.96zM720 184m-96 0a96 96 0 1 0 192 0 96 96 0 1 0-192 0Z" /></svg>