<?xml version="1.0" standalone="no"?><!DOCTYPE svg PUBLIC "-//W3C//DTD SVG 1.1//EN" "http://www.w3.org/Graphics/SVG/1.1/DTD/svg11.dtd"><svg class="icon" width="32px" height="32.00px" viewBox="0 0 1024 1024" version="1.1" xmlns="http://www.w3.org/2000/svg"><path d="M862.08 590.72a132.48 132.48 0 0 1-26.56-78.72v-64c0-182.4-137.92-330.56-307.52-330.56S220.48 266.56 220.48 448v64a132.48 132.48 0 0 1-26.56 79.68l-18.24 23.68a124.8 124.8 0 0 0-25.28 75.52 116.8 116.8 0 0 0 113.6 118.72h528a116.8 116.8 0 0 0 113.6-119.68 123.2 123.2 0 0 0-25.28-75.2z m-70.08 135.68H264a33.92 33.92 0 0 1-32-36.48 40.64 40.64 0 0 1 8-24.64l19.84-25.28a214.4 214.4 0 0 0 43.84-128v-64c0-136.32 100.48-247.36 224-247.36s224 111.04 224 247.36v64a214.4 214.4 0 0 0 44.48 128l18.24 24a40.64 40.64 0 0 1 8 24.64 33.92 33.92 0 0 1-30.4 37.76zM694.08 829.12a41.6 41.6 0 0 0-57.28 12.48 138.24 138.24 0 0 1-108.48 60.8 91.84 91.84 0 0 1-86.4-53.76 41.6 41.6 0 0 0-77.44 30.4 175.68 175.68 0 0 0 163.84 106.56 224 224 0 0 0 178.88-99.52 40.96 40.96 0 0 0-13.12-56.96zM182.4 288a352 352 0 0 1 71.04-98.56A359.04 359.04 0 0 1 352 118.4a41.6 41.6 0 1 0-32-76.8 422.72 422.72 0 0 0-125.44 88.96A422.72 422.72 0 0 0 105.6 256 41.6 41.6 0 0 0 128 310.4a39.68 39.68 0 0 0 16 3.2A41.6 41.6 0 0 0 182.4 288zM918.4 256a422.72 422.72 0 0 0-88.96-125.76A422.72 422.72 0 0 0 704 41.6a41.6 41.6 0 0 0-32 76.8 352 352 0 0 1 98.56 71.04A352 352 0 0 1 841.6 288a41.6 41.6 0 0 0 38.4 25.6 38.08 38.08 0 0 0 16-3.2 40.96 40.96 0 0 0 22.4-54.4z" /></svg>