<?xml version="1.0" standalone="no"?><!DOCTYPE svg PUBLIC "-//W3C//DTD SVG 1.1//EN" "http://www.w3.org/Graphics/SVG/1.1/DTD/svg11.dtd"><svg class="icon" width="32px" height="32.00px" viewBox="0 0 1024 1024" version="1.1" xmlns="http://www.w3.org/2000/svg"><path d="M792.96 950.08a119.36 119.36 0 0 1-81.28-32l-162.24-124.16a71.04 71.04 0 0 0-86.72 0l-148.8 117.44a118.08 118.08 0 0 1-128 24.96 135.04 135.04 0 0 1-80.32-128V201.6a128 128 0 0 1 128-128h557.44a128 128 0 0 1 128 128v613.12a134.4 134.4 0 0 1-79.36 125.76 112.64 112.64 0 0 1-46.72 9.6z m-288-256a153.92 153.92 0 0 1 93.44 32l163.84 125.44 3.52 2.88a33.92 33.92 0 0 0 39.36 8.32 50.88 50.88 0 0 0 29.12-49.28V201.6a44.8 44.8 0 0 0-44.8-44.8H232.96a44.8 44.8 0 0 0-44.8 44.8v608a51.84 51.84 0 0 0 29.44 49.92 35.2 35.2 0 0 0 38.4-9.28l3.52-3.2 150.4-118.4a153.92 153.92 0 0 1 96.64-32.96z" /></svg>