<?xml version="1.0" standalone="no"?><!DOCTYPE svg PUBLIC "-//W3C//DTD SVG 1.1//EN" "http://www.w3.org/Graphics/SVG/1.1/DTD/svg11.dtd"><svg class="icon" width="32px" height="32.00px" viewBox="0 0 1024 1024" version="1.1" xmlns="http://www.w3.org/2000/svg"><path d="M512 182.4a313.6 313.6 0 1 0 313.6 313.6A314.24 314.24 0 0 0 512 182.4z m0 544a230.4 230.4 0 1 1 230.4-230.4 230.72 230.72 0 0 1-230.4 230.4zM512 871.04a41.6 41.6 0 0 0-41.6 41.6V960a41.6 41.6 0 0 0 83.2 0v-47.36a41.6 41.6 0 0 0-41.6-41.6zM512 156.48a41.6 41.6 0 0 0 41.6-41.6V64a41.6 41.6 0 0 0-83.2 0v50.88a41.6 41.6 0 0 0 41.6 41.6zM154.56 697.28l-39.68 26.24A41.6 41.6 0 0 0 137.6 800a42.88 42.88 0 0 0 22.4-7.04L200.32 768a41.6 41.6 0 0 0-45.76-69.76zM843.84 335.36a40.32 40.32 0 0 0 22.72-7.04l42.56-27.84A41.6 41.6 0 0 0 864 231.04l-42.56 27.84a41.6 41.6 0 0 0 23.04 76.48zM147.84 339.84a40.32 40.32 0 0 0 21.44 6.08A41.6 41.6 0 0 0 192 268.8l-41.6-24.64a41.6 41.6 0 0 0-43.2 71.36zM916.8 708.48l-43.52-26.24a41.6 41.6 0 1 0-43.2 71.04l43.52 26.56a43.2 43.2 0 0 0 21.44 5.76 41.6 41.6 0 0 0 21.76-77.12z" /></svg>