<?xml version="1.0" standalone="no"?><!DOCTYPE svg PUBLIC "-//W3C//DTD SVG 1.1//EN" "http://www.w3.org/Graphics/SVG/1.1/DTD/svg11.dtd"><svg class="icon" width="32px" height="32.00px" viewBox="0 0 1024 1024" version="1.1" xmlns="http://www.w3.org/2000/svg"><path d="M761.28 86.4h-49.6a40.64 40.64 0 0 0-79.36 0h-240.64a40.64 40.64 0 0 0-79.36 0H262.72A176.32 176.32 0 0 0 86.4 262.72v530.56a176.32 176.32 0 0 0 176.32 176.32h498.56a176.32 176.32 0 0 0 176.32-176.32V262.72a176.32 176.32 0 0 0-176.32-176.32zM262.72 169.6H310.4V224a41.6 41.6 0 0 0 83.2 0V169.6h236.8V224a41.6 41.6 0 1 0 83.2 0V169.6h47.68a93.12 93.12 0 0 1 93.12 93.12v79.68H169.6V262.72A93.12 93.12 0 0 1 262.72 169.6z m498.56 716.8H262.72a93.12 93.12 0 0 1-93.12-93.12V425.6h684.8v367.68a93.12 93.12 0 0 1-93.12 93.12z" /></svg>