<?xml version="1.0" standalone="no"?><!DOCTYPE svg PUBLIC "-//W3C//DTD SVG 1.1//EN" "http://www.w3.org/Graphics/SVG/1.1/DTD/svg11.dtd"><svg class="icon" width="32px" height="32.00px" viewBox="0 0 1024 1024" version="1.1" xmlns="http://www.w3.org/2000/svg"><path d="M800 198.4h-43.2l-62.08-82.56a113.28 113.28 0 0 0-90.56-45.44h-184.32a113.28 113.28 0 0 0-90.56 45.44L267.2 198.4H224a170.24 170.24 0 0 0-169.6 169.92v416A170.24 170.24 0 0 0 224 953.6h576a170.24 170.24 0 0 0 170.24-170.24v-416A170.24 170.24 0 0 0 800 198.4z m86.4 584.96A87.04 87.04 0 0 1 800 870.4H224a87.04 87.04 0 0 1-86.4-87.04v-416A87.04 87.04 0 0 1 224 281.6h64a41.6 41.6 0 0 0 32-16.64l74.56-99.2a29.76 29.76 0 0 1 24-12.16h184.32a29.76 29.76 0 0 1 24 12.16L704 264.96a41.6 41.6 0 0 0 32 16.64h64a87.04 87.04 0 0 1 87.04 86.72zM512 390.4a185.6 185.6 0 1 0 185.6 185.6 185.6 185.6 0 0 0-185.6-185.6z m0 288a102.4 102.4 0 1 1 102.4-102.4 102.72 102.72 0 0 1-102.4 102.4zM512 240m-48 0a48 48 0 1 0 96 0 48 48 0 1 0-96 0Z" /></svg>