<?xml version="1.0" standalone="no"?><!DOCTYPE svg PUBLIC "-//W3C//DTD SVG 1.1//EN" "http://www.w3.org/Graphics/SVG/1.1/DTD/svg11.dtd"><svg class="icon" width="32px" height="32.00px" viewBox="0 0 1024 1024" version="1.1" xmlns="http://www.w3.org/2000/svg"><path d="M208 22.4A137.6 137.6 0 1 0 345.6 160 137.92 137.92 0 0 0 208 22.4z m0 192A54.4 54.4 0 1 1 262.4 160a54.4 54.4 0 0 1-54.4 54.4zM464 201.6h448a41.6 41.6 0 1 0 0-83.2h-448a41.6 41.6 0 0 0 0 83.2zM208 374.4a137.6 137.6 0 1 0 137.6 137.6 137.92 137.92 0 0 0-137.6-137.6z m0 192A54.4 54.4 0 1 1 262.4 512a54.4 54.4 0 0 1-54.4 54.4zM912 470.4h-448a41.6 41.6 0 0 0 0 83.2h448a41.6 41.6 0 0 0 0-83.2zM208 726.4a137.6 137.6 0 1 0 137.6 137.6 137.92 137.92 0 0 0-137.6-137.6z m0 192A54.4 54.4 0 1 1 262.4 864a54.4 54.4 0 0 1-54.4 54.4zM912 822.4h-448a41.6 41.6 0 0 0 0 83.2h448a41.6 41.6 0 0 0 0-83.2z" /></svg>