<?xml version="1.0" standalone="no"?><!DOCTYPE svg PUBLIC "-//W3C//DTD SVG 1.1//EN" "http://www.w3.org/Graphics/SVG/1.1/DTD/svg11.dtd"><svg class="icon" width="32px" height="31.72px" viewBox="0 0 1033 1024" version="1.1" xmlns="http://www.w3.org/2000/svg"><path d="M544 22.4A489.6 489.6 0 1 0 1033.6 512 489.92 489.92 0 0 0 544 22.4z m0 896A406.4 406.4 0 1 1 950.4 512 407.04 407.04 0 0 1 544 918.4zM726.08 486.4H553.6V320a41.6 41.6 0 0 0-83.2 0v208a41.6 41.6 0 0 0 41.6 41.6h214.08a41.6 41.6 0 0 0 0-83.2z" /></svg>