<?xml version="1.0" standalone="no"?><!DOCTYPE svg PUBLIC "-//W3C//DTD SVG 1.1//EN" "http://www.w3.org/Graphics/SVG/1.1/DTD/svg11.dtd"><svg class="icon" width="32px" height="31.97px" viewBox="0 0 1025 1024" version="1.1" xmlns="http://www.w3.org/2000/svg"><path d="M760 881.6H296A297.6 297.6 0 0 1 281.28 288a297.28 297.28 0 0 1 540.48 71.04 265.6 265.6 0 0 1-61.76 523.84z m-461.44-512A214.4 214.4 0 1 0 296 800h464a182.4 182.4 0 0 0 22.4-363.2 42.24 42.24 0 0 1-35.84-33.92 214.08 214.08 0 0 0-403.2-54.72 40.96 40.96 0 0 1-39.04 23.36h-5.76z" /></svg>