<?xml version="1.0" standalone="no"?><!DOCTYPE svg PUBLIC "-//W3C//DTD SVG 1.1//EN" "http://www.w3.org/Graphics/SVG/1.1/DTD/svg11.dtd"><svg class="icon" width="32px" height="32.00px" viewBox="0 0 1024 1024" version="1.1" xmlns="http://www.w3.org/2000/svg"><path d="M512 78.4A433.6 433.6 0 1 0 945.6 512 434.24 434.24 0 0 0 512 78.4zM512 864a352 352 0 1 1 352-352 352 352 0 0 1-352 352zM336 416m-56 0a56 56 0 1 0 112 0 56 56 0 1 0-112 0ZM688 416m-56 0a56 56 0 1 0 112 0 56 56 0 1 0-112 0ZM624 640h-224a41.6 41.6 0 0 0 0 83.2h224a41.6 41.6 0 0 0 0-83.2z" /></svg>