<?xml version="1.0" standalone="no"?><!DOCTYPE svg PUBLIC "-//W3C//DTD SVG 1.1//EN" "http://www.w3.org/Graphics/SVG/1.1/DTD/svg11.dtd"><svg class="icon" width="32px" height="32.00px" viewBox="0 0 1024 1024" version="1.1" xmlns="http://www.w3.org/2000/svg"><path d="M512 78.4A433.6 433.6 0 1 0 945.6 512 434.24 434.24 0 0 0 512 78.4zM512 864a352 352 0 1 1 352-352 352 352 0 0 1-352 352zM617.28 609.6a272.96 272.96 0 0 1-210.56 0 41.6 41.6 0 0 0-32 76.8 353.92 353.92 0 0 0 275.2 0 41.6 41.6 0 0 0-32-76.8zM336 416m-56 0a56 56 0 1 0 112 0 56 56 0 1 0-112 0ZM688 416m-56 0a56 56 0 1 0 112 0 56 56 0 1 0-112 0Z" /></svg>