<?xml version="1.0" standalone="no"?><!DOCTYPE svg PUBLIC "-//W3C//DTD SVG 1.1//EN" "http://www.w3.org/Graphics/SVG/1.1/DTD/svg11.dtd"><svg class="icon" width="32px" height="32.00px" viewBox="0 0 1024 1024" version="1.1" xmlns="http://www.w3.org/2000/svg"><path d="M512 22.4A489.6 489.6 0 1 0 1001.6 512 489.92 489.92 0 0 0 512 22.4z m0 896A406.4 406.4 0 1 1 918.4 512 407.04 407.04 0 0 1 512 918.4zM644.48 328l-224 64a41.92 41.92 0 0 0-28.48 28.48l-64 221.44a41.92 41.92 0 0 0 40 53.44 40.64 40.64 0 0 0 10.88-1.6l224-61.76a41.92 41.92 0 0 0 29.12-28.48l64-224a41.6 41.6 0 0 0-51.52-51.52z m-86.08 230.08l-129.92 35.84 37.12-128 129.92-37.12z" /></svg>