<?xml version="1.0" standalone="no"?><!DOCTYPE svg PUBLIC "-//W3C//DTD SVG 1.1//EN" "http://www.w3.org/Graphics/SVG/1.1/DTD/svg11.dtd"><svg class="icon" width="32px" height="32.00px" viewBox="0 0 1024 1024" version="1.1" xmlns="http://www.w3.org/2000/svg"><path d="M730.24 61.12h-32a279.04 279.04 0 0 0-144 40l-49.92 30.08-49.92-30.08a279.04 279.04 0 0 0-144-40h-16a280 280 0 0 0-280.32 279.68A535.04 535.04 0 0 0 220.48 764.8L448 942.72a91.2 91.2 0 0 0 57.6 19.84 96 96 0 0 0 54.72-17.28l128-92.16A41.6 41.6 0 1 0 640 785.6l-128 92.16a10.56 10.56 0 0 1-12.48 0l-227.84-178.24A454.08 454.08 0 0 1 96 340.8a196.8 196.8 0 0 1 197.76-196.48h16a197.44 197.44 0 0 1 101.12 28.16l71.36 42.88a41.28 41.28 0 0 0 42.88 0l71.36-42.88a198.4 198.4 0 0 1 101.12-28.16h32a196.8 196.8 0 0 1 198.4 196.48v3.84a445.44 445.44 0 0 1-19.52 131.52 41.6 41.6 0 0 0 79.68 24.32 535.68 535.68 0 0 0 23.04-155.84v-3.84a280 280 0 0 0-280.96-279.68zM952.32 669.12h-86.4v-86.4a41.6 41.6 0 1 0-83.2 0v86.4h-86.4a41.6 41.6 0 1 0 0 83.2h86.4v86.4a41.6 41.6 0 1 0 83.2 0v-86.4h86.4a41.6 41.6 0 0 0 0-83.2z" /></svg>