<?xml version="1.0" standalone="no"?><!DOCTYPE svg PUBLIC "-//W3C//DTD SVG 1.1//EN" "http://www.w3.org/Graphics/SVG/1.1/DTD/svg11.dtd"><svg class="icon" width="32px" height="32.00px" viewBox="0 0 1024 1024" version="1.1" xmlns="http://www.w3.org/2000/svg"><path d="M512 70.4A441.6 441.6 0 1 0 953.6 512 441.92 441.92 0 0 0 512 70.4z m0 800c-26.88 0-71.04-76.16-91.52-208 32 2.24 64 3.2 91.52 3.2s58.88 0 91.52-3.2c-20.48 131.84-64.64 208-91.52 208z m0-288c-36.16 0-69.44 0-100.16-3.52 0-21.44-2.24-43.52-2.24-66.88s0-45.44 2.24-66.88c32-2.24 64-3.52 100.16-3.52s69.44 0 100.16 3.52c0 21.44 2.24 43.52 2.24 66.88s0 45.44-2.24 66.88c-30.72 2.24-64 3.52-100.16 3.52z m-184-12.8c-103.04-15.68-160-42.24-173.12-57.6 12.8-15.36 70.08-41.92 173.12-57.6 0 19.2-1.6 38.4-1.6 57.6s0.64 38.4 1.6 57.6zM512 153.6c26.88 0 71.04 76.16 91.52 208-32-2.24-64-3.2-91.52-3.2s-58.88 0-91.52 3.2c20.48-131.84 64.64-208 91.52-208z m184 300.8c103.04 15.68 160 42.24 173.12 57.6-12.8 15.36-70.08 41.92-173.12 57.6 0-19.2 1.6-38.4 1.6-57.6s-0.64-38.4-1.6-57.6z m160-44.8a695.04 695.04 0 0 0-167.04-39.68 672 672 0 0 0-52.16-193.6 360 360 0 0 1 218.56 233.28zM387.2 176.32a672 672 0 0 0-51.52 193.6 695.04 695.04 0 0 0-167.04 39.68 360 360 0 0 1 218.56-233.28zM168.64 614.4a695.04 695.04 0 0 0 167.04 39.68 672 672 0 0 0 51.52 192 360 360 0 0 1-218.56-231.68z m468.16 233.28a672 672 0 0 0 51.52-192 695.04 695.04 0 0 0 167.04-39.68 360 360 0 0 1-218.56 231.68z" /></svg>