<?xml version="1.0" standalone="no"?><!DOCTYPE svg PUBLIC "-//W3C//DTD SVG 1.1//EN" "http://www.w3.org/Graphics/SVG/1.1/DTD/svg11.dtd"><svg class="icon" width="32px" height="32.00px" viewBox="0 0 1024 1024" version="1.1" xmlns="http://www.w3.org/2000/svg"><path d="M505.6 960a112.32 112.32 0 0 1-69.12-23.68L220.48 768A536.32 536.32 0 0 1 14.08 343.04 280 280 0 0 1 293.76 64h16a282.24 282.24 0 0 1 144 40l49.92 30.08 49.92-30.08A282.24 282.24 0 0 1 697.6 64h32a280 280 0 0 1 279.68 279.68v3.84a540.8 540.8 0 0 1-224 437.44l-215.04 154.88a110.4 110.4 0 0 1-64.64 20.16zM293.76 146.56A196.8 196.8 0 0 0 96 343.04a453.44 453.44 0 0 0 175.68 358.72l216 169.28a28.8 28.8 0 0 0 34.56 0L736 716.8a456.64 456.64 0 0 0 192-369.92v-3.84a196.8 196.8 0 0 0-196.48-196.48h-32a198.4 198.4 0 0 0-101.12 28.16L525.12 217.6a41.28 41.28 0 0 1-42.88 0l-71.36-42.88a198.4 198.4 0 0 0-101.12-28.16z" /></svg>