<?xml version="1.0" standalone="no"?><!DOCTYPE svg PUBLIC "-//W3C//DTD SVG 1.1//EN" "http://www.w3.org/Graphics/SVG/1.1/DTD/svg11.dtd"><svg class="icon" width="32px" height="32.00px" viewBox="0 0 1024 1024" version="1.1" xmlns="http://www.w3.org/2000/svg"><path d="M853.333333 853.333333H170.666667a82.901333 82.901333 0 0 1-85.333334-80.042666V250.666667A82.858667 82.858667 0 0 1 170.666667 170.666667h682.666666a82.858667 82.858667 0 0 1 85.333334 80v522.666666A82.901333 82.901333 0 0 1 853.333333 853.333333zM170.666667 256v511.530667L853.333333 768V256.469333L170.666667 256z m402.346666 426.666667H256a136.96 136.96 0 0 1 46.634667-91.306667 163.370667 163.370667 0 0 1 111.872-47.36c41.984 0.853333 82.048 17.792 111.872 47.36A137.045333 137.045333 0 0 1 573.013333 682.666667zM768 640h-128v-85.333333h128v85.333333z m-353.493333-128a82.517333 82.517333 0 0 1-85.333334-85.333333 82.56 82.56 0 0 1 85.333334-85.333334 82.56 82.56 0 0 1 85.333333 85.333334 82.517333 82.517333 0 0 1-85.333333 85.333333zM768 469.333333h-170.666667V384h170.666667v85.333333z" /></svg>