<?xml version="1.0" standalone="no"?><!DOCTYPE svg PUBLIC "-//W3C//DTD SVG 1.1//EN" "http://www.w3.org/Graphics/SVG/1.1/DTD/svg11.dtd"><svg class="icon" width="32px" height="32.00px" viewBox="0 0 1024 1024" version="1.1" xmlns="http://www.w3.org/2000/svg"><path d="M614.4 904.96a43.52 43.52 0 0 0-10.88-15.68 41.28 41.28 0 0 0-58.56 4.16 64 64 0 0 1-40.96 24.96c-52.8 0-128-147.52-133.76-380.8h181.76a41.6 41.6 0 0 0 0-83.2H371.2c12.8-214.72 82.24-348.8 132.8-348.8s108.16 110.4 128 288a41.6 41.6 0 1 0 82.88-9.6 707.52 707.52 0 0 0-71.04-256 404.16 404.16 0 0 1 256 288 41.92 41.92 0 0 0 50.24 32 41.6 41.6 0 0 0 32-50.24A489.6 489.6 0 1 0 504 1001.6a480 480 0 0 0 122.88-15.68 41.6 41.6 0 0 0 29.76-50.56 40.64 40.64 0 0 0-42.24-30.4zM364.48 130.88A810.56 810.56 0 0 0 288 454.4H102.08a406.72 406.72 0 0 1 262.4-323.52zM98.88 537.6H288a836.8 836.8 0 0 0 77.44 355.52A406.4 406.4 0 0 1 98.88 537.6zM792 454.4A217.92 217.92 0 0 0 576 672c0 109.12 156.8 270.4 188.16 301.44a41.6 41.6 0 0 0 58.88 0c32-32 188.16-192 188.16-301.44a217.92 217.92 0 0 0-219.2-217.6z m0 429.44c-64-68.8-134.4-164.48-134.4-211.84A134.4 134.4 0 0 1 928 672c0 47.36-72.64 143.04-136 211.84zM792 704m-64 0a64 64 0 1 0 128 0 64 64 0 1 0-128 0Z" /></svg>