<?xml version="1.0" standalone="no"?><!DOCTYPE svg PUBLIC "-//W3C//DTD SVG 1.1//EN" "http://www.w3.org/Graphics/SVG/1.1/DTD/svg11.dtd"><svg class="icon" width="32px" height="32.00px" viewBox="0 0 1024 1024" version="1.1" xmlns="http://www.w3.org/2000/svg"><path d="M790.72 87.04H233.28a115.52 115.52 0 0 0-115.52 115.52v569.28a150.72 150.72 0 0 0 53.12 114.56l17.6 14.72a102.08 102.08 0 0 0 131.52 0l27.52-22.72a18.88 18.88 0 0 1 20.8-2.24l96 48.96a106.88 106.88 0 0 0 46.08 10.88 104.96 104.96 0 0 0 46.08-10.88l99.84-50.24a19.2 19.2 0 0 1 19.84 1.6l40.64 28.8a101.76 101.76 0 0 0 133.12-9.28l12.16-11.84a149.44 149.44 0 0 0 44.16-106.56v-576a115.52 115.52 0 0 0-115.52-114.56z m32 689.92a67.2 67.2 0 0 1-19.84 47.68l-12.16 12.16a19.84 19.84 0 0 1-24.96 1.92l-40.32-29.12a103.36 103.36 0 0 0-105.6-9.6l-99.52 50.24a18.88 18.88 0 0 1-17.6 0l-96-48.64a103.04 103.04 0 0 0-111.36 12.48l-27.2 22.72a19.84 19.84 0 0 1-24.96 0l-19.2-13.76a66.88 66.88 0 0 1-24-51.2V202.56a32 32 0 0 1 32-32h558.72a32 32 0 0 1 32 32zM335.36 367.68h192a41.6 41.6 0 1 0 0-83.2h-192a41.6 41.6 0 0 0 0 83.2zM687.36 444.48h-352a41.6 41.6 0 0 0 0 83.2h352a41.6 41.6 0 1 0 0-83.2zM687.36 604.48h-352a41.6 41.6 0 1 0 0 83.2h352a41.6 41.6 0 1 0 0-83.2z" /></svg>