<?xml version="1.0" standalone="no"?><!DOCTYPE svg PUBLIC "-//W3C//DTD SVG 1.1//EN" "http://www.w3.org/Graphics/SVG/1.1/DTD/svg11.dtd"><svg class="icon" width="32px" height="32.00px" viewBox="0 0 1024 1024" version="1.1" xmlns="http://www.w3.org/2000/svg"><path d="M512 14.4A470.4 470.4 0 0 0 172.8 160a421.76 421.76 0 0 0-118.08 314.24c16.96 325.76 422.4 522.88 439.68 531.2a38.72 38.72 0 0 0 17.92 4.16 41.92 41.92 0 0 0 15.04-2.88C544 1000 969.92 832 969.92 472A458.24 458.24 0 0 0 512 14.4z m0 907.52c-70.72-39.04-361.28-209.92-374.08-452.16a337.28 337.28 0 0 1 96-252.48A384 384 0 0 1 512 97.6a375.04 375.04 0 0 1 374.4 374.4c0.32 266.56-297.92 416.64-372.48 449.92zM512 256a201.6 201.6 0 1 0 201.6 201.6A201.92 201.92 0 0 0 512 256z m0 320a118.4 118.4 0 1 1 118.4-118.4A118.4 118.4 0 0 1 512 576z" /></svg>