<?xml version="1.0" standalone="no"?><!DOCTYPE svg PUBLIC "-//W3C//DTD SVG 1.1//EN" "http://www.w3.org/Graphics/SVG/1.1/DTD/svg11.dtd"><svg class="icon" width="32px" height="32.00px" viewBox="0 0 1024 1024" version="1.1" xmlns="http://www.w3.org/2000/svg"><path d="M512 657.6A390.4 390.4 0 0 1 128 355.2l-55.68 38.72a41.6 41.6 0 0 1-48.64-67.84l112-80A41.6 41.6 0 0 1 201.6 280 303.04 303.04 0 0 0 512 576a303.04 303.04 0 0 0 310.4-294.4 41.6 41.6 0 0 1 65.92-33.92l112 80a41.6 41.6 0 0 1-48.64 67.84l-54.08-40.32A390.4 390.4 0 0 1 512 657.6zM144 657.6a40.64 40.64 0 0 1-23.04-7.04 41.28 41.28 0 0 1-11.52-57.6l64-96A41.6 41.6 0 0 1 242.56 544l-64 96a40.96 40.96 0 0 1-34.56 17.6zM528 785.6a41.6 41.6 0 0 1-41.6-41.6v-128a41.6 41.6 0 0 1 83.2 0v128a41.6 41.6 0 0 1-41.6 41.6zM912 657.6a41.92 41.92 0 0 1-29.44-12.16l-96-96a41.6 41.6 0 1 1 58.88-58.88l96 96a41.6 41.6 0 0 1 0 58.88 41.92 41.92 0 0 1-29.44 12.16z" /></svg>