<?xml version="1.0" standalone="no"?><!DOCTYPE svg PUBLIC "-//W3C//DTD SVG 1.1//EN" "http://www.w3.org/Graphics/SVG/1.1/DTD/svg11.dtd"><svg class="icon" width="32px" height="32.00px" viewBox="0 0 1024 1024" version="1.1" xmlns="http://www.w3.org/2000/svg"><path d="M512 769.6a201.92 201.92 0 0 0 201.6-201.6v-352a201.6 201.6 0 0 0-403.2 0v352a201.92 201.92 0 0 0 201.6 201.6z m-118.4-553.6a118.4 118.4 0 0 1 236.8 0v352a118.4 118.4 0 0 1-236.8 0zM889.6 536a41.6 41.6 0 0 0-83.2 0 294.4 294.4 0 0 1-588.8 0 41.6 41.6 0 0 0-83.2 0 377.92 377.92 0 0 0 352 376.32v55.68a41.6 41.6 0 0 0 83.2 0V908.8a377.92 377.92 0 0 0 320-372.8z" /></svg>