<?xml version="1.0" standalone="no"?><!DOCTYPE svg PUBLIC "-//W3C//DTD SVG 1.1//EN" "http://www.w3.org/Graphics/SVG/1.1/DTD/svg11.dtd"><svg class="icon" width="32px" height="32.00px" viewBox="0 0 1024 1024" version="1.1" xmlns="http://www.w3.org/2000/svg"><path d="M807.04 646.4a45.12 45.12 0 0 0 15.68 2.88 41.92 41.92 0 0 0 38.72-25.6A380.48 380.48 0 0 0 889.6 480a41.6 41.6 0 0 0-83.2 0 291.2 291.2 0 0 1-22.08 112 41.92 41.92 0 0 0 22.72 54.4zM940.8 849.92L800 713.28a40.64 40.64 0 0 0-12.16-34.56 41.92 41.92 0 0 0-34.56-10.24L393.28 324.16A41.6 41.6 0 0 0 352 284.48L140.8 81.92a41.6 41.6 0 1 0-57.6 60.16l227.2 217.92v161.92a192 192 0 0 0 192 192h19.84a192 192 0 0 0 115.84-39.04l46.4 44.16A291.2 291.2 0 0 1 512 774.4 294.72 294.72 0 0 1 217.6 480a41.6 41.6 0 0 0-83.2 0 377.92 377.92 0 0 0 352 376.32v46.08H384a41.6 41.6 0 0 0 0 83.2h256a41.6 41.6 0 0 0 0-83.2h-70.4v-49.92a380.16 380.16 0 0 0 175.04-75.52l138.56 133.12a41.6 41.6 0 1 0 57.6-60.16zM521.92 630.4h-19.84a108.48 108.48 0 0 1-108.48-108.48v-81.92l182.4 175.04a106.24 106.24 0 0 1-54.08 15.36zM347.52 209.92a41.92 41.92 0 0 0 54.72-22.08 108.16 108.16 0 0 1 99.84-66.24h19.84a108.48 108.48 0 0 1 108.48 108.48V480a41.6 41.6 0 0 0 83.2 0V230.08a192 192 0 0 0-192-192h-19.84a192 192 0 0 0-176.64 117.12 41.6 41.6 0 0 0 22.4 54.72z" /></svg>