<?xml version="1.0" standalone="no"?><!DOCTYPE svg PUBLIC "-//W3C//DTD SVG 1.1//EN" "http://www.w3.org/Graphics/SVG/1.1/DTD/svg11.dtd"><svg class="icon" width="32px" height="32.00px" viewBox="0 0 1024 1024" version="1.1" xmlns="http://www.w3.org/2000/svg"><path d="M875.52 582.72v-188.8a363.52 363.52 0 0 0-727.04 0v188.8A133.76 133.76 0 0 0 160 849.6h704a133.76 133.76 0 0 0 10.88-266.88zM864 768H160a50.56 50.56 0 1 1 0-102.4 72.32 72.32 0 0 0 72.32-72.32v-199.36a280.32 280.32 0 0 1 560.64 0v199.36A72.32 72.32 0 0 0 864 665.6a50.56 50.56 0 1 1 0 102.4zM672 910.4H352a41.6 41.6 0 0 0 0 83.2h320a41.6 41.6 0 0 0 0-83.2z" /></svg>