<?xml version="1.0" standalone="no"?><!DOCTYPE svg PUBLIC "-//W3C//DTD SVG 1.1//EN" "http://www.w3.org/Graphics/SVG/1.1/DTD/svg11.dtd"><svg class="icon" width="32px" height="32.00px" viewBox="0 0 1024 1024" version="1.1" xmlns="http://www.w3.org/2000/svg"><path d="M410.24 944.32h-52.48a128 128 0 0 1-128-128v-131.2A202.56 202.56 0 0 1 230.4 288V200.32A120.64 120.64 0 0 1 352 79.68h480a120.64 120.64 0 0 1 121.6 120.64v160a41.6 41.6 0 0 1-41.6 41.6h-3.84a102.4 102.4 0 1 0 0 204.8h3.84a41.6 41.6 0 0 1 41.6 41.6v165.76a128 128 0 0 1-128 128h-35.84a128 128 0 0 1-128-128A44.16 44.16 0 0 0 618.24 768h-36.48a44.16 44.16 0 0 0-44.16 44.16v4.16a128 128 0 0 1-127.36 128zM352 162.88a37.44 37.44 0 0 0-38.4 37.44v128a41.6 41.6 0 0 1-41.6 41.6 119.36 119.36 0 0 0 0 238.08 41.6 41.6 0 0 1 41.6 41.6v168.32a44.16 44.16 0 0 0 44.16 44.48h52.48a44.16 44.16 0 0 0 44.16-44.48v-4.16a128 128 0 0 1 128-128h36.48a128 128 0 0 1 128 128 44.16 44.16 0 0 0 44.16 44.16h36.48a44.16 44.16 0 0 0 44.16-44.16v-128A185.6 185.6 0 0 1 870.4 320V200.32A37.44 37.44 0 0 0 832 162.88z" /></svg>