<?xml version="1.0" standalone="no"?><!DOCTYPE svg PUBLIC "-//W3C//DTD SVG 1.1//EN" "http://www.w3.org/Graphics/SVG/1.1/DTD/svg11.dtd"><svg class="icon" width="32px" height="32.00px" viewBox="0 0 1024 1024" version="1.1" xmlns="http://www.w3.org/2000/svg"><path d="M496 505.6a41.6 41.6 0 0 1-41.6-41.6v-352a41.6 41.6 0 0 1 83.2 0v352a41.6 41.6 0 0 1-41.6 41.6zM512 953.6A441.92 441.92 0 0 1 248 157.76 41.6 41.6 0 0 1 297.92 224a358.4 358.4 0 1 0 416-9.92 41.6 41.6 0 1 1 46.72-68.8A441.6 441.6 0 0 1 512 953.6z" /></svg>