<?xml version="1.0" standalone="no"?><!DOCTYPE svg PUBLIC "-//W3C//DTD SVG 1.1//EN" "http://www.w3.org/Graphics/SVG/1.1/DTD/svg11.dtd"><svg class="icon" width="32px" height="32.00px" viewBox="0 0 1024 1024" version="1.1" xmlns="http://www.w3.org/2000/svg"><path d="M838.08 110.4h-68.16A121.92 121.92 0 0 0 656 32h-288a121.92 121.92 0 0 0-113.92 80H185.92A115.52 115.52 0 0 0 70.4 225.92v652.16a115.52 115.52 0 0 0 115.52 115.52h652.16a115.52 115.52 0 0 0 115.52-115.52V225.92a115.52 115.52 0 0 0-115.52-115.52z m-470.08 3.2h288a38.4 38.4 0 0 1 0 76.8h-288a38.4 38.4 0 1 1 0-76.8z m502.4 764.48a32 32 0 0 1-32 32H185.92a32 32 0 0 1-32-32V225.92a32 32 0 0 1 32-32h68.16a121.92 121.92 0 0 0 113.92 80h288a121.92 121.92 0 0 0 113.92-80h68.16a32 32 0 0 1 32 32zM661.76 364.8l-216 224-114.56-101.44a41.6 41.6 0 1 0-55.36 62.08l144.64 128a40.64 40.64 0 0 0 27.52 10.56 41.6 41.6 0 0 0 30.08-12.8l243.52-254.4a41.6 41.6 0 1 0-59.84-57.6z" /></svg>