<?xml version="1.0" standalone="no"?><!DOCTYPE svg PUBLIC "-//W3C//DTD SVG 1.1//EN" "http://www.w3.org/Graphics/SVG/1.1/DTD/svg11.dtd"><svg class="icon" width="32px" height="32.00px" viewBox="0 0 1024 1024" version="1.1" xmlns="http://www.w3.org/2000/svg"><path d="M912.96 716.16a41.28 41.28 0 0 0-57.28 12.8 406.4 406.4 0 0 1-739.84-126.08L167.04 640a41.6 41.6 0 1 0 49.92-64l-128-96a41.28 41.28 0 0 0-43.52-3.84A41.6 41.6 0 0 0 22.4 512a489.6 489.6 0 0 0 903.68 261.44 41.6 41.6 0 0 0-13.12-57.28zM512 22.4A488.64 488.64 0 0 0 103.04 242.88 41.6 41.6 0 0 0 172.48 288a406.4 406.4 0 0 1 738.56 145.28l-89.6-53.44a41.6 41.6 0 0 0-42.88 71.04l160 96a40.32 40.32 0 0 0 21.44 6.08 42.56 42.56 0 0 0 20.48-5.44A41.28 41.28 0 0 0 1001.6 512 489.92 489.92 0 0 0 512 22.4z" /></svg>