<?xml version="1.0" standalone="no"?><!DOCTYPE svg PUBLIC "-//W3C//DTD SVG 1.1//EN" "http://www.w3.org/Graphics/SVG/1.1/DTD/svg11.dtd"><svg class="icon" width="32px" height="32.00px" viewBox="0 0 1024 1024" version="1.1" xmlns="http://www.w3.org/2000/svg"><path d="M520 234.56a137.6 137.6 0 1 0 137.6 137.6 137.92 137.92 0 0 0-137.6-137.6z m0 192a54.4 54.4 0 1 1 54.4-54.4 54.4 54.4 0 0 1-54.4 54.4zM789.44 219.84L640 113.92a221.44 221.44 0 0 0-252.8 0L234.56 219.84a197.12 197.12 0 0 0-84.16 161.6v377.6a192 192 0 0 0 192 192h340.16a192 192 0 0 0 192-192v-377.6a197.12 197.12 0 0 0-85.12-161.6z m0 539.2a107.84 107.84 0 0 1-107.84 107.52H341.44a107.84 107.84 0 0 1-107.84-107.52v-377.6A113.6 113.6 0 0 1 282.24 288l151.04-105.92a137.92 137.92 0 0 1 157.44 0L741.76 288a113.6 113.6 0 0 1 48.64 93.44z" /></svg>