<?xml version="1.0" standalone="no"?><!DOCTYPE svg PUBLIC "-//W3C//DTD SVG 1.1//EN" "http://www.w3.org/Graphics/SVG/1.1/DTD/svg11.dtd"><svg class="icon" width="32px" height="32.00px" viewBox="0 0 1024 1024" version="1.1" xmlns="http://www.w3.org/2000/svg"><path d="M213.333333 341.333333H128V170.666667a85.333333 85.333333 0 0 1 85.333333-85.333334h170.666667v85.333334H213.333333v170.666666z m597.333334-256h-170.666667v85.333334h170.666667v170.666666h85.333333V170.666667a85.333333 85.333333 0 0 0-85.333333-85.333334z m-149.333334 320a149.333333 149.333333 0 1 1-298.666666 0 149.333333 149.333333 0 0 1 298.666666 0z m-85.333333 0a64 64 0 1 0-128 0 64 64 0 0 0 128 0zM390.101333 768h-87.466666q11.52-66.218667 56.789333-117.162667Q422.144 580.266667 512 580.266667t152.576 70.570666q45.312 50.944 56.832 117.162667h-87.466667q-9.386667-33.749333-33.152-60.501333-37.248-41.898667-88.746666-41.898667-51.584 0-88.832 41.898667-23.765333 26.752-33.109334 60.501333zM384 853.333333v85.333334H213.333333a85.333333 85.333333 0 0 1-85.333333-85.333334v-170.666666h85.333333v170.666666h170.666667z m426.666667 85.333334h-170.666667v-85.333334h170.666667v-170.666666h85.333333v170.666666a85.333333 85.333333 0 0 1-85.333333 85.333334z" /></svg>