<?xml version="1.0" standalone="no"?><!DOCTYPE svg PUBLIC "-//W3C//DTD SVG 1.1//EN" "http://www.w3.org/Graphics/SVG/1.1/DTD/svg11.dtd"><svg class="icon" width="32px" height="32.00px" viewBox="0 0 1024 1024" version="1.1" xmlns="http://www.w3.org/2000/svg"><path d="M213.333333 896H128v-42.666667a299.008 299.008 0 0 1 298.666667-298.666666h170.666666a299.008 299.008 0 0 1 298.666667 298.666666v42.666667h-85.333333v-42.666667a213.589333 213.589333 0 0 0-213.333334-213.333333h-170.666666a213.589333 213.589333 0 0 0-213.333334 213.333333v42.666667z m298.666667-384a213.333333 213.333333 0 1 1 0-426.666667 213.333333 213.333333 0 0 1 0 426.666667z m0-341.333333a128 128 0 1 0 0 256 128 128 0 0 0 0-256z" /></svg>