<?xml version="1.0" standalone="no"?><!DOCTYPE svg PUBLIC "-//W3C//DTD SVG 1.1//EN" "http://www.w3.org/Graphics/SVG/1.1/DTD/svg11.dtd"><svg class="icon" width="32px" height="32.00px" viewBox="0 0 1024 1024" version="1.1" xmlns="http://www.w3.org/2000/svg"><path d="M970.88 312.96A79.04 79.04 0 0 0 896 307.84L801.6 352V271.04a120.64 120.64 0 0 0-120.64-120.64H135.04A120.64 120.64 0 0 0 14.4 271.04v481.92a120.64 120.64 0 0 0 120.64 120.64h545.92a120.64 120.64 0 0 0 120.64-120.64V672L896 716.16a81.28 81.28 0 0 0 32 7.36 79.36 79.36 0 0 0 42.56-12.48A85.12 85.12 0 0 0 1009.6 640v-256a85.12 85.12 0 0 0-38.72-71.04z m-252.48 440a37.76 37.76 0 0 1-37.44 37.44H135.04a37.76 37.76 0 0 1-37.44-37.44V271.04A37.76 37.76 0 0 1 135.04 233.6h545.92a37.76 37.76 0 0 1 37.44 37.44v481.92zM926.08 640l-124.48-57.28v-140.16L928 384zM336 456m-72 0a72 72 0 1 0 144 0 72 72 0 1 0-144 0Z" /></svg>