<?xml version="1.0" standalone="no"?><!DOCTYPE svg PUBLIC "-//W3C//DTD SVG 1.1//EN" "http://www.w3.org/Graphics/SVG/1.1/DTD/svg11.dtd"><svg class="icon" width="32px" height="32.00px" viewBox="0 0 1024 1024" version="1.1" xmlns="http://www.w3.org/2000/svg"><path d="M264 515.84m-80 0a80 80 0 1 0 160 0 80 80 0 1 0-160 0ZM428.8 260.16a41.6 41.6 0 0 0 0 58.88 278.4 278.4 0 0 1 19.2 373.76 41.6 41.6 0 0 0 5.44 58.56 42.24 42.24 0 0 0 26.56 9.6 41.28 41.28 0 0 0 32-15.04 363.2 363.2 0 0 0 82.56-230.08 359.36 359.36 0 0 0-105.92-256 42.24 42.24 0 0 0-59.84 0.32zM679.36 88.32a41.6 41.6 0 1 0-52.8 64 470.72 470.72 0 0 1 8.64 720 41.6 41.6 0 0 0 27.2 72.96 40.64 40.64 0 0 0 27.2-10.24 553.28 553.28 0 0 0-10.24-846.72z" /></svg>