<?xml version="1.0" standalone="no"?><!DOCTYPE svg PUBLIC "-//W3C//DTD SVG 1.1//EN" "http://www.w3.org/Graphics/SVG/1.1/DTD/svg11.dtd"><svg class="icon" width="32px" height="32.00px" viewBox="0 0 1024 1024" version="1.1" xmlns="http://www.w3.org/2000/svg"><path d="M676.16 326.72A41.6 41.6 0 0 0 617.28 384a196.48 196.48 0 0 1 57.92 140.16 198.72 198.72 0 0 1-45.12 125.76 41.28 41.28 0 0 0 5.76 58.56 40.64 40.64 0 0 0 26.24 9.28 41.92 41.92 0 0 0 32-15.04 281.92 281.92 0 0 0 64-178.56 278.4 278.4 0 0 0-81.92-197.44zM818.88 197.12a41.6 41.6 0 1 0-52.8 64 341.12 341.12 0 0 1 6.08 522.56 41.6 41.6 0 0 0 27.84 73.6 42.24 42.24 0 0 0 27.2-10.24 424.64 424.64 0 0 0-7.68-649.92zM496.64 158.08a78.4 78.4 0 0 0-84.16 10.56L261.44 292.8H152a102.08 102.08 0 0 0-102.08 101.76v224a101.76 101.76 0 0 0 102.08 101.76h108.48l149.44 134.08a79.36 79.36 0 0 0 132.16-58.88V229.76a79.04 79.04 0 0 0-45.44-71.68z m-37.76 627.2L304 646.72a40.32 40.32 0 0 0-27.52-10.88H152a18.88 18.88 0 0 1-18.88-18.56v-224a18.88 18.88 0 0 1 18.88-18.56h124.48a41.28 41.28 0 0 0 26.24-9.6l156.16-128z" /></svg>