<?xml version="1.0" standalone="no"?><!DOCTYPE svg PUBLIC "-//W3C//DTD SVG 1.1//EN" "http://www.w3.org/Graphics/SVG/1.1/DTD/svg11.dtd"><svg class="icon" width="32px" height="32.00px" viewBox="0 0 1024 1024" version="1.1" xmlns="http://www.w3.org/2000/svg"><path d="M462.4 873.6a78.72 78.72 0 0 1-52.48-20.48l-149.44-134.08H152a101.76 101.76 0 0 1-102.08-101.76v-224a102.08 102.08 0 0 1 102.08-100.48h109.44l151.04-124.16a79.04 79.04 0 0 1 129.6 61.12v564.48a78.08 78.08 0 0 1-47.04 72.32 79.04 79.04 0 0 1-32.64 7.04z m-310.4-497.6a18.88 18.88 0 0 0-18.88 18.56v224a18.88 18.88 0 0 0 18.88 18.56h124.48a40.32 40.32 0 0 1 27.52 10.88l154.88 138.56V238.4l-156.16 128a41.28 41.28 0 0 1-26.24 9.6z" /></svg>