<?xml version="1.0" standalone="no"?><!DOCTYPE svg PUBLIC "-//W3C//DTD SVG 1.1//EN" "http://www.w3.org/Graphics/SVG/1.1/DTD/svg11.dtd"><svg class="icon" width="32px" height="32.00px" viewBox="0 0 1024 1024" version="1.1" xmlns="http://www.w3.org/2000/svg"><path d="M846.4 787.52a434.24 434.24 0 1 0-58.88 58.88l87.04 87.04a41.6 41.6 0 0 0 58.88 0 41.6 41.6 0 0 0 0-58.88zM512 864a352 352 0 1 1 352-352 352 352 0 0 1-352 352zM680 480h-134.4v-134.4a41.6 41.6 0 0 0-83.2 0V480h-134.4a41.6 41.6 0 0 0 0 83.2h134.4v134.4a41.6 41.6 0 0 0 83.2 0v-134.4h134.4a41.6 41.6 0 0 0 0-83.2z" /></svg>